%TF.GenerationSoftware,KiCad,Pcbnew,(6.0.2-0)*%
%TF.CreationDate,2022-03-02T22:29:53+09:00*%
%TF.ProjectId,GateOut,47617465-4f75-4742-9e6b-696361645f70,A*%
%TF.SameCoordinates,Original*%
%TF.FileFunction,Copper,L2,Bot*%
%TF.FilePolarity,Positive*%
%FSLAX46Y46*%
G04 Gerber Fmt 4.6, Leading zero omitted, Abs format (unit mm)*
G04 Created by KiCad (PCBNEW (6.0.2-0)) date 2022-03-02 22:29:53*
%MOMM*%
%LPD*%
G01*
G04 APERTURE LIST*
%TA.AperFunction,ComponentPad*%
%ADD10R,1.700000X1.700000*%
%TD*%
%TA.AperFunction,ComponentPad*%
%ADD11O,1.700000X1.700000*%
%TD*%
%TA.AperFunction,ViaPad*%
%ADD12C,0.800000*%
%TD*%
G04 APERTURE END LIST*
D10*
%TO.P,J2,1,Pin_1*%
%TO.N,/out1*%
X120650000Y-77480000D03*
D11*
%TO.P,J2,2,Pin_2*%
%TO.N,+12V*%
X120650000Y-80020000D03*
%TO.P,J2,3,Pin_3*%
%TO.N,GND*%
X120650000Y-82560000D03*
%TO.P,J2,4,Pin_4*%
%TO.N,/out2*%
X120650000Y-85100000D03*
%TD*%
D10*
%TO.P,J1,1,Pin_1*%
%TO.N,/in1*%
X102870000Y-77480000D03*
D11*
%TO.P,J1,2,Pin_2*%
%TO.N,GND*%
X102870000Y-80020000D03*
%TO.P,J1,3,Pin_3*%
X102870000Y-82560000D03*
%TO.P,J1,4,Pin_4*%
%TO.N,/in2*%
X102870000Y-85100000D03*
%TD*%
D12*
%TO.N,GND*%
X108712000Y-78486000D03*
X113538000Y-81026000D03*
X109982000Y-81026000D03*
X107442000Y-85344000D03*
X117348000Y-77978000D03*
X115062000Y-81026000D03*
X111760000Y-81026000D03*
%TD*%
%TA.AperFunction,Conductor*%
%TO.N,GND*%
G36*
X119233621Y-76728002D02*
G01*
X119280114Y-76781658D01*
X119291500Y-76834000D01*
X119291500Y-78378134D01*
X119298255Y-78440316D01*
X119349385Y-78576705D01*
X119436739Y-78693261D01*
X119553295Y-78780615D01*
X119561704Y-78783767D01*
X119561705Y-78783768D01*
X119670451Y-78824535D01*
X119727216Y-78867176D01*
X119751916Y-78933738D01*
X119736709Y-79003087D01*
X119717316Y-79029568D01*
X119590629Y-79162138D01*
X119464743Y-79346680D01*
X119370688Y-79549305D01*
X119310989Y-79764570D01*
X119287251Y-79986695D01*
X119300110Y-80209715D01*
X119301247Y-80214761D01*
X119301248Y-80214767D01*
X119314597Y-80274000D01*
X119349222Y-80427639D01*
X119433266Y-80634616D01*
X119549987Y-80825088D01*
X119696250Y-80993938D01*
X119868126Y-81136632D01*
X119882859Y-81145241D01*
X119941955Y-81179774D01*
X119990679Y-81231412D01*
X120003750Y-81301195D01*
X119977019Y-81366967D01*
X119936562Y-81400327D01*
X119928457Y-81404546D01*
X119919738Y-81410036D01*
X119749433Y-81537905D01*
X119741726Y-81544748D01*
X119594590Y-81698717D01*
X119588104Y-81706727D01*
X119468098Y-81882649D01*
X119463000Y-81891623D01*
X119373338Y-82084783D01*
X119369775Y-82094470D01*
X119314389Y-82294183D01*
X119315912Y-82302607D01*
X119328292Y-82306000D01*
X120778000Y-82306000D01*
X120846121Y-82326002D01*
X120892614Y-82379658D01*
X120904000Y-82432000D01*
X120904000Y-82688000D01*
X120883998Y-82756121D01*
X120830342Y-82802614D01*
X120778000Y-82814000D01*
X119333225Y-82814000D01*
X119319694Y-82817973D01*
X119318257Y-82827966D01*
X119348565Y-82962446D01*
X119351645Y-82972275D01*
X119431770Y-83169603D01*
X119436413Y-83178794D01*
X119547694Y-83360388D01*
X119553777Y-83368699D01*
X119693213Y-83529667D01*
X119700580Y-83536883D01*
X119864434Y-83672916D01*
X119872881Y-83678831D01*
X119941969Y-83719203D01*
X119990693Y-83770842D01*
X120003764Y-83840625D01*
X119977033Y-83906396D01*
X119936584Y-83939752D01*
X119923607Y-83946507D01*
X119919474Y-83949610D01*
X119919471Y-83949612D01*
X119749100Y-84077530D01*
X119744965Y-84080635D01*
X119590629Y-84242138D01*
X119464743Y-84426680D01*
X119370688Y-84629305D01*
X119310989Y-84844570D01*
X119287251Y-85066695D01*
X119287548Y-85071848D01*
X119287548Y-85071851D01*
X119293011Y-85166590D01*
X119300110Y-85289715D01*
X119301247Y-85294761D01*
X119301248Y-85294767D01*
X119321119Y-85382939D01*
X119349222Y-85507639D01*
X119387461Y-85601811D01*
X119418640Y-85678596D01*
X119425736Y-85749237D01*
X119393514Y-85812501D01*
X119332204Y-85848301D01*
X119301897Y-85852000D01*
X104216601Y-85852000D01*
X104148480Y-85831998D01*
X104101987Y-85778342D01*
X104091883Y-85708068D01*
X104103643Y-85670174D01*
X104135138Y-85606448D01*
X104137430Y-85601811D01*
X104202370Y-85388069D01*
X104231529Y-85166590D01*
X104233156Y-85100000D01*
X104214852Y-84877361D01*
X104160431Y-84660702D01*
X104071354Y-84455840D01*
X103950014Y-84268277D01*
X103799670Y-84103051D01*
X103795619Y-84099852D01*
X103795615Y-84099848D01*
X103628414Y-83967800D01*
X103628410Y-83967798D01*
X103624359Y-83964598D01*
X103582569Y-83941529D01*
X103532598Y-83891097D01*
X103517826Y-83821654D01*
X103542942Y-83755248D01*
X103570294Y-83728641D01*
X103745328Y-83603792D01*
X103753200Y-83597139D01*
X103904052Y-83446812D01*
X103910730Y-83438965D01*
X104035003Y-83266020D01*
X104040313Y-83257183D01*
X104134670Y-83066267D01*
X104138469Y-83056672D01*
X104200377Y-82852910D01*
X104202555Y-82842837D01*
X104203986Y-82831962D01*
X104201775Y-82817778D01*
X104188617Y-82814000D01*
X102742000Y-82814000D01*
X102673879Y-82793998D01*
X102627386Y-82740342D01*
X102616000Y-82688000D01*
X102616000Y-82287885D01*
X103124000Y-82287885D01*
X103128475Y-82303124D01*
X103129865Y-82304329D01*
X103137548Y-82306000D01*
X104188344Y-82306000D01*
X104201875Y-82302027D01*
X104203180Y-82292947D01*
X104161214Y-82125875D01*
X104157894Y-82116124D01*
X104072972Y-81920814D01*
X104068105Y-81911739D01*
X103952426Y-81732926D01*
X103946136Y-81724757D01*
X103802806Y-81567240D01*
X103795273Y-81560215D01*
X103628139Y-81428222D01*
X103619552Y-81422517D01*
X103582116Y-81401851D01*
X103532146Y-81351419D01*
X103517374Y-81281976D01*
X103542490Y-81215571D01*
X103569842Y-81188964D01*
X103745327Y-81063792D01*
X103753200Y-81057139D01*
X103904052Y-80906812D01*
X103910730Y-80898965D01*
X104035003Y-80726020D01*
X104040313Y-80717183D01*
X104134670Y-80526267D01*
X104138469Y-80516672D01*
X104200377Y-80312910D01*
X104202555Y-80302837D01*
X104203986Y-80291962D01*
X104201775Y-80277778D01*
X104188617Y-80274000D01*
X103142115Y-80274000D01*
X103126876Y-80278475D01*
X103125671Y-80279865D01*
X103124000Y-80287548D01*
X103124000Y-82287885D01*
X102616000Y-82287885D01*
X102616000Y-79892000D01*
X102636002Y-79823879D01*
X102689658Y-79777386D01*
X102742000Y-79766000D01*
X104188344Y-79766000D01*
X104201875Y-79762027D01*
X104203180Y-79752947D01*
X104161214Y-79585875D01*
X104157894Y-79576124D01*
X104072972Y-79380814D01*
X104068105Y-79371739D01*
X103952426Y-79192926D01*
X103946136Y-79184757D01*
X103802293Y-79026677D01*
X103771241Y-78962831D01*
X103779635Y-78892333D01*
X103824812Y-78837564D01*
X103851256Y-78823895D01*
X103958297Y-78783767D01*
X103966705Y-78780615D01*
X104083261Y-78693261D01*
X104170615Y-78576705D01*
X104221745Y-78440316D01*
X104228500Y-78378134D01*
X104228500Y-76834000D01*
X104248502Y-76765879D01*
X104302158Y-76719386D01*
X104354500Y-76708000D01*
X119165500Y-76708000D01*
X119233621Y-76728002D01*
G37*
%TD.AperFunction*%
%TD*%
M02*
