%TF.GenerationSoftware,KiCad,Pcbnew,(6.0.2-0)*%
%TF.CreationDate,2022-03-02T22:29:53+09:00*%
%TF.ProjectId,GateOut,47617465-4f75-4742-9e6b-696361645f70,A*%
%TF.SameCoordinates,Original*%
%TF.FileFunction,Copper,L1,Top*%
%TF.FilePolarity,Positive*%
%FSLAX46Y46*%
G04 Gerber Fmt 4.6, Leading zero omitted, Abs format (unit mm)*
G04 Created by KiCad (PCBNEW (6.0.2-0)) date 2022-03-02 22:29:53*
%MOMM*%
%LPD*%
G01*
G04 APERTURE LIST*
G04 Aperture macros list*
%AMRoundRect*
0 Rectangle with rounded corners*
0 $1 Rounding radius*
0 $2 $3 $4 $5 $6 $7 $8 $9 X,Y pos of 4 corners*
0 Add a 4 corners polygon primitive as box body*
4,1,4,$2,$3,$4,$5,$6,$7,$8,$9,$2,$3,0*
0 Add four circle primitives for the rounded corners*
1,1,$1+$1,$2,$3*
1,1,$1+$1,$4,$5*
1,1,$1+$1,$6,$7*
1,1,$1+$1,$8,$9*
0 Add four rect primitives between the rounded corners*
20,1,$1+$1,$2,$3,$4,$5,0*
20,1,$1+$1,$4,$5,$6,$7,0*
20,1,$1+$1,$6,$7,$8,$9,0*
20,1,$1+$1,$8,$9,$2,$3,0*%
G04 Aperture macros list end*
%TA.AperFunction,SMDPad,CuDef*%
%ADD10RoundRect,0.160000X0.222500X0.160000X-0.222500X0.160000X-0.222500X-0.160000X0.222500X-0.160000X0*%
%TD*%
%TA.AperFunction,SMDPad,CuDef*%
%ADD11RoundRect,0.160000X-0.197500X-0.160000X0.197500X-0.160000X0.197500X0.160000X-0.197500X0.160000X0*%
%TD*%
%TA.AperFunction,SMDPad,CuDef*%
%ADD12RoundRect,0.150000X-0.150000X0.825000X-0.150000X-0.825000X0.150000X-0.825000X0.150000X0.825000X0*%
%TD*%
%TA.AperFunction,SMDPad,CuDef*%
%ADD13RoundRect,0.160000X-0.160000X0.197500X-0.160000X-0.197500X0.160000X-0.197500X0.160000X0.197500X0*%
%TD*%
%TA.AperFunction,SMDPad,CuDef*%
%ADD14RoundRect,0.160000X0.160000X-0.197500X0.160000X0.197500X-0.160000X0.197500X-0.160000X-0.197500X0*%
%TD*%
%TA.AperFunction,SMDPad,CuDef*%
%ADD15RoundRect,0.155000X0.155000X-0.212500X0.155000X0.212500X-0.155000X0.212500X-0.155000X-0.212500X0*%
%TD*%
%TA.AperFunction,ComponentPad*%
%ADD16R,1.700000X1.700000*%
%TD*%
%TA.AperFunction,ComponentPad*%
%ADD17O,1.700000X1.700000*%
%TD*%
%TA.AperFunction,ViaPad*%
%ADD18C,0.800000*%
%TD*%
%TA.AperFunction,Conductor*%
%ADD19C,0.400000*%
%TD*%
G04 APERTURE END LIST*
D10*
%TO.P,D2,1,K*%
%TO.N,Net-(D2-Pad1)*%
X107342000Y-82550000D03*
%TO.P,D2,2,A*%
%TO.N,/in2*%
X106197000Y-82550000D03*
%TD*%
%TO.P,D1,1,K*%
%TO.N,Net-(D1-Pad1)*%
X107317000Y-79502000D03*
%TO.P,D1,2,A*%
%TO.N,/in1*%
X106172000Y-79502000D03*
%TD*%
D11*
%TO.P,R6,1*%
%TO.N,/in2*%
X106172000Y-83566000D03*
%TO.P,R6,2*%
%TO.N,Net-(R6-Pad2)*%
X107367000Y-83566000D03*
%TD*%
D12*
%TO.P,U1,1*%
%TO.N,Net-(R7-Pad2)*%
X113665000Y-78551000D03*
%TO.P,U1,2,-*%
%TO.N,Net-(R3-Pad2)*%
X112395000Y-78551000D03*
%TO.P,U1,3,+*%
%TO.N,Net-(R4-Pad2)*%
X111125000Y-78551000D03*
%TO.P,U1,4,V-*%
%TO.N,GND*%
X109855000Y-78551000D03*
%TO.P,U1,5,+*%
%TO.N,Net-(R6-Pad2)*%
X109855000Y-83501000D03*
%TO.P,U1,6,-*%
%TO.N,Net-(R5-Pad2)*%
X111125000Y-83501000D03*
%TO.P,U1,7*%
%TO.N,Net-(R10-Pad1)*%
X112395000Y-83501000D03*
%TO.P,U1,8,V+*%
%TO.N,+12V*%
X113665000Y-83501000D03*
%TD*%
D11*
%TO.P,R5,1*%
%TO.N,GND*%
X108787000Y-85344000D03*
%TO.P,R5,2*%
%TO.N,Net-(R5-Pad2)*%
X109982000Y-85344000D03*
%TD*%
D13*
%TO.P,R7,1*%
%TO.N,Net-(R3-Pad2)*%
X115316000Y-76872500D03*
%TO.P,R7,2*%
%TO.N,Net-(R7-Pad2)*%
X115316000Y-78067500D03*
%TD*%
D11*
%TO.P,R8,1*%
%TO.N,Net-(R5-Pad2)*%
X111162500Y-85344000D03*
%TO.P,R8,2*%
%TO.N,Net-(R10-Pad1)*%
X112357500Y-85344000D03*
%TD*%
%TO.P,R9,1*%
%TO.N,Net-(R7-Pad2)*%
X116407000Y-79502000D03*
%TO.P,R9,2*%
%TO.N,/out1*%
X117602000Y-79502000D03*
%TD*%
D14*
%TO.P,R3,1*%
%TO.N,GND*%
X116332000Y-78067500D03*
%TO.P,R3,2*%
%TO.N,Net-(R3-Pad2)*%
X116332000Y-76872500D03*
%TD*%
D15*
%TO.P,C1,1*%
%TO.N,+12V*%
X115062000Y-83625500D03*
%TO.P,C1,2*%
%TO.N,GND*%
X115062000Y-82490500D03*
%TD*%
D11*
%TO.P,R1,1*%
%TO.N,GND*%
X106147000Y-80518000D03*
%TO.P,R1,2*%
%TO.N,Net-(D1-Pad1)*%
X107342000Y-80518000D03*
%TD*%
%TO.P,R2,1*%
%TO.N,GND*%
X106172000Y-81534000D03*
%TO.P,R2,2*%
%TO.N,Net-(D2-Pad1)*%
X107367000Y-81534000D03*
%TD*%
%TO.P,R10,1*%
%TO.N,Net-(R10-Pad1)*%
X113448500Y-85344000D03*
%TO.P,R10,2*%
%TO.N,/out2*%
X114643500Y-85344000D03*
%TD*%
%TO.P,R4,1*%
%TO.N,/in1*%
X106147000Y-78486000D03*
%TO.P,R4,2*%
%TO.N,Net-(R4-Pad2)*%
X107342000Y-78486000D03*
%TD*%
D16*
%TO.P,J2,1,Pin_1*%
%TO.N,/out1*%
X120650000Y-77480000D03*
D17*
%TO.P,J2,2,Pin_2*%
%TO.N,+12V*%
X120650000Y-80020000D03*
%TO.P,J2,3,Pin_3*%
%TO.N,GND*%
X120650000Y-82560000D03*
%TO.P,J2,4,Pin_4*%
%TO.N,/out2*%
X120650000Y-85100000D03*
%TD*%
D16*
%TO.P,J1,1,Pin_1*%
%TO.N,/in1*%
X102870000Y-77480000D03*
D17*
%TO.P,J1,2,Pin_2*%
%TO.N,GND*%
X102870000Y-80020000D03*
%TO.P,J1,3,Pin_3*%
X102870000Y-82560000D03*
%TO.P,J1,4,Pin_4*%
%TO.N,/in2*%
X102870000Y-85100000D03*
%TD*%
D18*
%TO.N,GND*%
X108712000Y-78486000D03*
X113538000Y-81026000D03*
X109982000Y-81026000D03*
X107442000Y-85344000D03*
X117348000Y-77978000D03*
X115062000Y-81026000D03*
X111760000Y-81026000D03*
%TD*%
D19*
%TO.N,Net-(R4-Pad2)*%
X107342000Y-78486000D02*
X107342000Y-77570000D01*
X107950000Y-76962000D02*
X110744000Y-76962000D01*
X110744000Y-76962000D02*
X111125000Y-77343000D01*
X107342000Y-77570000D02*
X107950000Y-76962000D01*
X111125000Y-77343000D02*
X111125000Y-78551000D01*
%TO.N,/in2*%
X106172000Y-83566000D02*
X106172000Y-84074000D01*
X106172000Y-84074000D02*
X105146000Y-85100000D01*
X105146000Y-85100000D02*
X102870000Y-85100000D01*
%TO.N,GND*%
X107442000Y-85344000D02*
X108787000Y-85344000D01*
%TO.N,/out1*%
X117602000Y-79502000D02*
X118110000Y-79502000D01*
X118110000Y-79502000D02*
X120132000Y-77480000D01*
X120132000Y-77480000D02*
X120650000Y-77480000D01*
%TO.N,GND*%
X117348000Y-77978000D02*
X116421500Y-77978000D01*
X116421500Y-77978000D02*
X116332000Y-78067500D01*
%TO.N,+12V*%
X115062000Y-83625500D02*
X117288500Y-83625500D01*
X117288500Y-83625500D02*
X120650000Y-80264000D01*
X120650000Y-80264000D02*
X120650000Y-80020000D01*
X115062000Y-83625500D02*
X113789500Y-83625500D01*
X113789500Y-83625500D02*
X113665000Y-83501000D01*
%TO.N,/out2*%
X114643500Y-85344000D02*
X120406000Y-85344000D01*
X120406000Y-85344000D02*
X120650000Y-85100000D01*
%TO.N,Net-(R5-Pad2)*%
X111162500Y-85344000D02*
X109982000Y-85344000D01*
X111125000Y-83501000D02*
X111125000Y-85306500D01*
X111125000Y-85306500D02*
X111162500Y-85344000D01*
%TO.N,Net-(R10-Pad1)*%
X112357500Y-85344000D02*
X113448500Y-85344000D01*
X112395000Y-83501000D02*
X112395000Y-85306500D01*
X112395000Y-85306500D02*
X112357500Y-85344000D01*
%TO.N,Net-(R3-Pad2)*%
X116332000Y-76872500D02*
X115316000Y-76872500D01*
%TO.N,Net-(R7-Pad2)*%
X115316000Y-78067500D02*
X115316000Y-79083500D01*
X115316000Y-79083500D02*
X115734500Y-79502000D01*
X115734500Y-79502000D02*
X116407000Y-79502000D01*
X113665000Y-78551000D02*
X114235000Y-78551000D01*
X114235000Y-78551000D02*
X114718500Y-78067500D01*
X114718500Y-78067500D02*
X115316000Y-78067500D01*
%TO.N,Net-(R3-Pad2)*%
X112395000Y-78551000D02*
X112395000Y-77343000D01*
X112395000Y-77343000D02*
X112865500Y-76872500D01*
X112865500Y-76872500D02*
X115316000Y-76872500D01*
%TO.N,Net-(R6-Pad2)*%
X107367000Y-83566000D02*
X109790000Y-83566000D01*
X109790000Y-83566000D02*
X109855000Y-83501000D01*
%TO.N,/in2*%
X106197000Y-82550000D02*
X106197000Y-83541000D01*
X106197000Y-83541000D02*
X106172000Y-83566000D01*
%TO.N,Net-(D2-Pad1)*%
X107367000Y-81534000D02*
X107367000Y-82525000D01*
X107367000Y-82525000D02*
X107342000Y-82550000D01*
%TO.N,Net-(D1-Pad1)*%
X107317000Y-79502000D02*
X107317000Y-80493000D01*
X107317000Y-80493000D02*
X107342000Y-80518000D01*
%TO.N,/in1*%
X106147000Y-78486000D02*
X106147000Y-77749000D01*
X106147000Y-77749000D02*
X105878000Y-77480000D01*
X105878000Y-77480000D02*
X102870000Y-77480000D01*
X106147000Y-78486000D02*
X106147000Y-79477000D01*
X106147000Y-79477000D02*
X106172000Y-79502000D01*
%TD*%
%TA.AperFunction,Conductor*%
%TO.N,/in2*%
G36*
X103247995Y-84338983D02*
G01*
X103394158Y-84416712D01*
X103394845Y-84417109D01*
X103524190Y-84498027D01*
X103524655Y-84498333D01*
X103637413Y-84576915D01*
X103637538Y-84577004D01*
X103740821Y-84651350D01*
X103841665Y-84719471D01*
X103947195Y-84779433D01*
X104064604Y-84829353D01*
X104064969Y-84829455D01*
X104064973Y-84829456D01*
X104200720Y-84867244D01*
X104200723Y-84867245D01*
X104201080Y-84867344D01*
X104201440Y-84867397D01*
X104201447Y-84867399D01*
X104363511Y-84891476D01*
X104363514Y-84891476D01*
X104363815Y-84891521D01*
X104548805Y-84899516D01*
X104556923Y-84903297D01*
X104560000Y-84911205D01*
X104560000Y-85288795D01*
X104556573Y-85297068D01*
X104548806Y-85300484D01*
X104363815Y-85308478D01*
X104363514Y-85308523D01*
X104363511Y-85308523D01*
X104201447Y-85332600D01*
X104201440Y-85332602D01*
X104201080Y-85332655D01*
X104200723Y-85332754D01*
X104200720Y-85332755D01*
X104064973Y-85370543D01*
X104064969Y-85370544D01*
X104064604Y-85370646D01*
X103947195Y-85420566D01*
X103841665Y-85480528D01*
X103740821Y-85548649D01*
X103740760Y-85548693D01*
X103740757Y-85548695D01*
X103637558Y-85622981D01*
X103637427Y-85623074D01*
X103524655Y-85701666D01*
X103524190Y-85701972D01*
X103394845Y-85782890D01*
X103394158Y-85783287D01*
X103251563Y-85859120D01*
X103247996Y-85861017D01*
X103239082Y-85861876D01*
X103234392Y-85859120D01*
X102661838Y-85308523D01*
X102453769Y-85108433D01*
X102450181Y-85100229D01*
X102453769Y-85091567D01*
X102661793Y-84891521D01*
X102988837Y-84577018D01*
X103234392Y-84340880D01*
X103242731Y-84337615D01*
X103247995Y-84338983D01*
G37*
%TD.AperFunction*%
%TD*%
%TA.AperFunction,Conductor*%
%TO.N,/out1*%
G36*
X120050636Y-76888570D02*
G01*
X121038921Y-77331479D01*
X121045069Y-77337990D01*
X121044618Y-77347355D01*
X120563370Y-78317681D01*
X120556624Y-78323570D01*
X120551347Y-78324080D01*
X120477881Y-78314309D01*
X120413084Y-78305690D01*
X120412666Y-78305626D01*
X120337350Y-78292821D01*
X120279931Y-78283059D01*
X120279879Y-78283026D01*
X120279875Y-78283049D01*
X120157862Y-78261683D01*
X120157760Y-78261669D01*
X120157742Y-78261666D01*
X120044360Y-78245949D01*
X120044122Y-78245916D01*
X120043886Y-78245903D01*
X120043883Y-78245903D01*
X119936320Y-78240116D01*
X119936316Y-78240116D01*
X119935925Y-78240095D01*
X119900272Y-78242961D01*
X119831044Y-78248527D01*
X119831040Y-78248528D01*
X119830538Y-78248568D01*
X119725231Y-78275685D01*
X119724753Y-78275907D01*
X119724747Y-78275909D01*
X119617703Y-78325592D01*
X119617698Y-78325595D01*
X119617271Y-78325793D01*
X119503927Y-78403240D01*
X119503642Y-78403496D01*
X119503637Y-78403500D01*
X119390718Y-78504962D01*
X119382274Y-78507942D01*
X119374625Y-78504532D01*
X119107619Y-78237526D01*
X119104192Y-78229253D01*
X119107340Y-78221269D01*
X119253491Y-78064720D01*
X119253646Y-78064554D01*
X119372735Y-77915683D01*
X119465018Y-77779422D01*
X119465114Y-77779256D01*
X119465121Y-77779245D01*
X119538559Y-77652379D01*
X119538560Y-77652378D01*
X119538618Y-77652277D01*
X119601661Y-77530752D01*
X119662193Y-77411508D01*
X119662364Y-77411184D01*
X119728390Y-77290919D01*
X119728781Y-77290259D01*
X119808433Y-77165356D01*
X119808990Y-77164558D01*
X119910455Y-77031344D01*
X119911092Y-77030578D01*
X120037181Y-76891392D01*
X120045275Y-76887561D01*
X120050636Y-76888570D01*
G37*
%TD.AperFunction*%
%TD*%
%TA.AperFunction,Conductor*%
%TO.N,+12V*%
G36*
X120880248Y-79668954D02*
G01*
X120885518Y-79676707D01*
X120929090Y-79909791D01*
X121084519Y-80741261D01*
X121082670Y-80750023D01*
X121078625Y-80753680D01*
X120923214Y-80838509D01*
X120922390Y-80838917D01*
X120776126Y-80904419D01*
X120775411Y-80904711D01*
X120641299Y-80954426D01*
X120640900Y-80954566D01*
X120514984Y-80995814D01*
X120393601Y-81035844D01*
X120393445Y-81035904D01*
X120393444Y-81035904D01*
X120342857Y-81055249D01*
X120273122Y-81081916D01*
X120149718Y-81141357D01*
X120019563Y-81221493D01*
X119878830Y-81329649D01*
X119732294Y-81465195D01*
X119731952Y-81465511D01*
X119723551Y-81468613D01*
X119715734Y-81465195D01*
X119448741Y-81198202D01*
X119445314Y-81189929D01*
X119448361Y-81182054D01*
X119563277Y-81055774D01*
X119563505Y-81055524D01*
X119652563Y-80931413D01*
X119666542Y-80904581D01*
X119713244Y-80814934D01*
X119713453Y-80814533D01*
X119751605Y-80701444D01*
X119772451Y-80588704D01*
X119781422Y-80472871D01*
X119783949Y-80350505D01*
X119785461Y-80218327D01*
X119785470Y-80217990D01*
X119791381Y-80072734D01*
X119791426Y-80072080D01*
X119806360Y-79918195D01*
X119810570Y-79910291D01*
X119815407Y-79907917D01*
X120303255Y-79796828D01*
X120871421Y-79667450D01*
X120880248Y-79668954D01*
G37*
%TD.AperFunction*%
%TD*%
%TA.AperFunction,Conductor*%
%TO.N,/out2*%
G36*
X120085012Y-84475555D02*
G01*
X121046706Y-84973734D01*
X121052475Y-84980582D01*
X121051495Y-84989906D01*
X120719174Y-85574303D01*
X120516146Y-85931333D01*
X120509077Y-85936830D01*
X120503630Y-85937011D01*
X120325548Y-85900554D01*
X120324638Y-85900329D01*
X120167583Y-85854795D01*
X120166789Y-85854534D01*
X120112104Y-85834348D01*
X120030360Y-85804174D01*
X120029891Y-85803988D01*
X119905861Y-85751416D01*
X119892268Y-85745500D01*
X119786399Y-85699426D01*
X119786379Y-85699418D01*
X119786290Y-85699379D01*
X119786184Y-85699337D01*
X119786167Y-85699330D01*
X119663534Y-85650779D01*
X119663529Y-85650777D01*
X119663334Y-85650700D01*
X119663137Y-85650638D01*
X119663127Y-85650634D01*
X119529168Y-85608183D01*
X119529166Y-85608183D01*
X119528909Y-85608101D01*
X119374934Y-85574303D01*
X119374672Y-85574271D01*
X119374667Y-85574270D01*
X119193571Y-85552059D01*
X119193567Y-85552059D01*
X119193325Y-85552029D01*
X119119642Y-85549307D01*
X118987268Y-85544416D01*
X118979127Y-85540686D01*
X118976000Y-85532724D01*
X118976000Y-85155142D01*
X118979427Y-85146869D01*
X118987129Y-85143456D01*
X119077442Y-85139041D01*
X119152444Y-85135374D01*
X119298534Y-85110341D01*
X119420128Y-85070172D01*
X119420547Y-85069952D01*
X119420552Y-85069950D01*
X119522689Y-85016341D01*
X119522690Y-85016340D01*
X119523085Y-85016133D01*
X119613263Y-84949493D01*
X119696522Y-84871521D01*
X119778720Y-84783485D01*
X119814379Y-84743795D01*
X119865625Y-84686756D01*
X119865785Y-84686581D01*
X119963172Y-84582506D01*
X119963574Y-84582097D01*
X120071489Y-84477541D01*
X120079815Y-84474245D01*
X120085012Y-84475555D01*
G37*
%TD.AperFunction*%
%TD*%
%TA.AperFunction,Conductor*%
%TO.N,/in1*%
G36*
X103247995Y-76718983D02*
G01*
X103394158Y-76796712D01*
X103394845Y-76797109D01*
X103524190Y-76878027D01*
X103524655Y-76878333D01*
X103637413Y-76956915D01*
X103637538Y-76957004D01*
X103740821Y-77031350D01*
X103841665Y-77099471D01*
X103947195Y-77159433D01*
X104064604Y-77209353D01*
X104064969Y-77209455D01*
X104064973Y-77209456D01*
X104200720Y-77247244D01*
X104200723Y-77247245D01*
X104201080Y-77247344D01*
X104201440Y-77247397D01*
X104201447Y-77247399D01*
X104363511Y-77271476D01*
X104363514Y-77271476D01*
X104363815Y-77271521D01*
X104548805Y-77279516D01*
X104556923Y-77283297D01*
X104560000Y-77291205D01*
X104560000Y-77668795D01*
X104556573Y-77677068D01*
X104548806Y-77680484D01*
X104363815Y-77688478D01*
X104363514Y-77688523D01*
X104363511Y-77688523D01*
X104201447Y-77712600D01*
X104201440Y-77712602D01*
X104201080Y-77712655D01*
X104200723Y-77712754D01*
X104200720Y-77712755D01*
X104064973Y-77750543D01*
X104064969Y-77750544D01*
X104064604Y-77750646D01*
X103947195Y-77800566D01*
X103841665Y-77860528D01*
X103740821Y-77928649D01*
X103740760Y-77928693D01*
X103740757Y-77928695D01*
X103637558Y-78002981D01*
X103637427Y-78003074D01*
X103524655Y-78081666D01*
X103524190Y-78081972D01*
X103394845Y-78162890D01*
X103394158Y-78163287D01*
X103251563Y-78239120D01*
X103247996Y-78241017D01*
X103239082Y-78241876D01*
X103234392Y-78239120D01*
X102661838Y-77688523D01*
X102453769Y-77488433D01*
X102450181Y-77480229D01*
X102453769Y-77471567D01*
X102661793Y-77271521D01*
X102988837Y-76957018D01*
X103234392Y-76720880D01*
X103242731Y-76717615D01*
X103247995Y-76718983D01*
G37*
%TD.AperFunction*%
%TD*%
%TA.AperFunction,Conductor*%
%TO.N,GND*%
G36*
X108505443Y-84294502D02*
G01*
X108551936Y-84348158D01*
X108562040Y-84418432D01*
X108532546Y-84483012D01*
X108472820Y-84521396D01*
X108462068Y-84524046D01*
X108460492Y-84524362D01*
X108319839Y-84568439D01*
X108306094Y-84574645D01*
X108180789Y-84650533D01*
X108168920Y-84659840D01*
X108065340Y-84763420D01*
X108056033Y-84775289D01*
X107980145Y-84900594D01*
X107973939Y-84914339D01*
X107929861Y-85054994D01*
X107927251Y-85068027D01*
X107926889Y-85071961D01*
X107929812Y-85086835D01*
X107941707Y-85090000D01*
X108915000Y-85090000D01*
X108983121Y-85110002D01*
X109029614Y-85163658D01*
X109041000Y-85216000D01*
X109041000Y-85472000D01*
X109020998Y-85540121D01*
X108967342Y-85586614D01*
X108915000Y-85598000D01*
X107943347Y-85598000D01*
X107928802Y-85602271D01*
X107926739Y-85614404D01*
X107927251Y-85619973D01*
X107929861Y-85633003D01*
X107947196Y-85688320D01*
X107948481Y-85759305D01*
X107911184Y-85819716D01*
X107847147Y-85850373D01*
X107826962Y-85852000D01*
X105704317Y-85852000D01*
X105636196Y-85831998D01*
X105589703Y-85778342D01*
X105579599Y-85708068D01*
X105609093Y-85643488D01*
X105615386Y-85637140D01*
X105617981Y-85635357D01*
X105636650Y-85614404D01*
X105659435Y-85588830D01*
X105664416Y-85583554D01*
X106652528Y-84595443D01*
X106658793Y-84589589D01*
X106696664Y-84556552D01*
X106696665Y-84556551D01*
X106702385Y-84551561D01*
X106739136Y-84499271D01*
X106743028Y-84494029D01*
X106782476Y-84443718D01*
X106785600Y-84436799D01*
X106786988Y-84434507D01*
X106795358Y-84419832D01*
X106796621Y-84417477D01*
X106800990Y-84411261D01*
X106800991Y-84411259D01*
X106801927Y-84411917D01*
X106846648Y-84366515D01*
X106915906Y-84350900D01*
X106945546Y-84356409D01*
X106987301Y-84369494D01*
X107046781Y-84388134D01*
X107116063Y-84394500D01*
X107118961Y-84394500D01*
X107367651Y-84394499D01*
X107617936Y-84394499D01*
X107620795Y-84394236D01*
X107620803Y-84394236D01*
X107654576Y-84391133D01*
X107687219Y-84388134D01*
X107696773Y-84385140D01*
X107834369Y-84342020D01*
X107834371Y-84342019D01*
X107841618Y-84339748D01*
X107848114Y-84335814D01*
X107848118Y-84335812D01*
X107919265Y-84292724D01*
X107984536Y-84274500D01*
X108437322Y-84274500D01*
X108505443Y-84294502D01*
G37*
%TD.AperFunction*%
%TA.AperFunction,Conductor*%
G36*
X105223121Y-78208502D02*
G01*
X105269614Y-78262158D01*
X105281000Y-78314500D01*
X105281001Y-78699436D01*
X105281264Y-78702295D01*
X105281264Y-78702303D01*
X105283648Y-78728252D01*
X105287366Y-78768719D01*
X105289365Y-78775097D01*
X105289365Y-78775098D01*
X105326105Y-78892333D01*
X105335752Y-78923118D01*
X105339685Y-78929613D01*
X105342814Y-78936542D01*
X105341388Y-78937186D01*
X105357329Y-78997351D01*
X105341603Y-79050911D01*
X105342814Y-79051458D01*
X105339685Y-79058387D01*
X105335752Y-79064882D01*
X105287366Y-79219281D01*
X105281000Y-79288563D01*
X105281001Y-79715436D01*
X105281264Y-79718295D01*
X105281264Y-79718303D01*
X105284367Y-79752076D01*
X105287366Y-79784719D01*
X105289365Y-79791097D01*
X105289365Y-79791098D01*
X105324775Y-79904089D01*
X105335752Y-79939118D01*
X105339686Y-79945615D01*
X105342813Y-79952539D01*
X105341535Y-79953116D01*
X105357622Y-80013836D01*
X105341985Y-80067088D01*
X105343272Y-80067669D01*
X105333939Y-80088339D01*
X105289861Y-80228994D01*
X105287251Y-80242027D01*
X105286889Y-80245961D01*
X105289812Y-80260835D01*
X105301707Y-80264000D01*
X105621454Y-80264000D01*
X105670375Y-80274532D01*
X105672382Y-80275748D01*
X105679629Y-80278019D01*
X105679631Y-80278020D01*
X105741785Y-80297498D01*
X105826781Y-80324134D01*
X105896063Y-80330500D01*
X105905159Y-80330500D01*
X106275001Y-80330499D01*
X106343120Y-80350501D01*
X106389613Y-80404156D01*
X106401000Y-80456499D01*
X106401000Y-80647885D01*
X106414035Y-80692280D01*
X106420897Y-80702957D01*
X106426000Y-80738452D01*
X106426000Y-81595500D01*
X106405998Y-81663621D01*
X106352342Y-81710114D01*
X106300000Y-81721500D01*
X105930113Y-81721501D01*
X105921064Y-81721501D01*
X105918205Y-81721764D01*
X105918197Y-81721764D01*
X105885622Y-81724757D01*
X105851781Y-81727866D01*
X105845403Y-81729865D01*
X105845402Y-81729865D01*
X105704631Y-81773980D01*
X105704629Y-81773981D01*
X105697382Y-81776252D01*
X105695375Y-81777468D01*
X105646454Y-81788000D01*
X105328347Y-81788000D01*
X105313802Y-81792271D01*
X105311739Y-81804404D01*
X105312251Y-81809973D01*
X105314861Y-81823006D01*
X105358939Y-81963661D01*
X105368272Y-81984331D01*
X105366763Y-81985012D01*
X105382622Y-82044868D01*
X105366736Y-82098975D01*
X105367813Y-82099461D01*
X105364686Y-82106385D01*
X105360752Y-82112882D01*
X105312366Y-82267281D01*
X105306000Y-82336563D01*
X105306001Y-82763436D01*
X105306264Y-82766295D01*
X105306264Y-82766303D01*
X105307474Y-82779470D01*
X105312366Y-82832719D01*
X105314365Y-82839097D01*
X105314365Y-82839098D01*
X105335997Y-82908124D01*
X105360752Y-82987118D01*
X105364685Y-82993613D01*
X105367814Y-83000542D01*
X105366388Y-83001186D01*
X105382329Y-83061351D01*
X105366603Y-83114911D01*
X105367814Y-83115458D01*
X105364685Y-83122387D01*
X105360752Y-83128882D01*
X105312366Y-83283281D01*
X105306000Y-83352563D01*
X105306001Y-83779436D01*
X105312366Y-83848719D01*
X105313461Y-83852214D01*
X105307324Y-83921807D01*
X105279109Y-83964921D01*
X104889435Y-84354595D01*
X104827123Y-84388621D01*
X104800340Y-84391500D01*
X104562112Y-84391500D01*
X104556672Y-84391382D01*
X104495679Y-84388746D01*
X104418815Y-84385424D01*
X104405740Y-84384174D01*
X104314668Y-84370644D01*
X104299395Y-84367397D01*
X104240759Y-84351075D01*
X104225255Y-84345647D01*
X104179450Y-84326172D01*
X104166518Y-84319775D01*
X104113960Y-84289911D01*
X104105696Y-84284782D01*
X104033004Y-84235678D01*
X104029923Y-84233530D01*
X103934501Y-84164843D01*
X103934318Y-84164711D01*
X103932180Y-84163180D01*
X103932055Y-84163091D01*
X103927866Y-84160141D01*
X103920756Y-84155186D01*
X103815460Y-84081804D01*
X103815431Y-84081784D01*
X103815108Y-84081559D01*
X103809160Y-84077530D01*
X103804293Y-84074233D01*
X103804249Y-84074204D01*
X103803910Y-84073974D01*
X103803445Y-84073668D01*
X103803162Y-84073487D01*
X103803106Y-84073450D01*
X103798664Y-84070600D01*
X103793615Y-84067360D01*
X103793439Y-84067250D01*
X103793370Y-84067206D01*
X103664746Y-83986740D01*
X103664270Y-83986442D01*
X103649018Y-83977268D01*
X103648331Y-83976871D01*
X103641786Y-83973241D01*
X103633126Y-83968438D01*
X103633098Y-83968423D01*
X103632680Y-83968191D01*
X103584301Y-83942463D01*
X103533551Y-83892821D01*
X103517694Y-83823618D01*
X103541769Y-83756827D01*
X103570297Y-83728639D01*
X103745328Y-83603792D01*
X103753200Y-83597139D01*
X103904052Y-83446812D01*
X103910730Y-83438965D01*
X104035003Y-83266020D01*
X104040313Y-83257183D01*
X104134670Y-83066267D01*
X104138469Y-83056672D01*
X104200377Y-82852910D01*
X104202555Y-82842837D01*
X104203986Y-82831962D01*
X104201775Y-82817778D01*
X104188617Y-82814000D01*
X102742000Y-82814000D01*
X102673879Y-82793998D01*
X102627386Y-82740342D01*
X102616000Y-82688000D01*
X102616000Y-82287885D01*
X103124000Y-82287885D01*
X103128475Y-82303124D01*
X103129865Y-82304329D01*
X103137548Y-82306000D01*
X104188344Y-82306000D01*
X104201875Y-82302027D01*
X104203180Y-82292947D01*
X104161214Y-82125875D01*
X104157894Y-82116124D01*
X104072972Y-81920814D01*
X104068105Y-81911739D01*
X103952426Y-81732926D01*
X103946136Y-81724757D01*
X103802806Y-81567240D01*
X103795273Y-81560215D01*
X103628139Y-81428222D01*
X103619552Y-81422517D01*
X103582116Y-81401851D01*
X103532146Y-81351419D01*
X103517374Y-81281976D01*
X103542490Y-81215571D01*
X103569842Y-81188964D01*
X103745327Y-81063792D01*
X103753200Y-81057139D01*
X103904052Y-80906812D01*
X103910730Y-80898965D01*
X103990176Y-80788404D01*
X105286739Y-80788404D01*
X105287251Y-80793973D01*
X105289861Y-80807006D01*
X105333939Y-80947661D01*
X105340147Y-80961410D01*
X105353543Y-80983530D01*
X105371722Y-81052160D01*
X105360606Y-81100646D01*
X105358941Y-81104335D01*
X105314861Y-81244994D01*
X105312251Y-81258027D01*
X105311889Y-81261961D01*
X105314812Y-81276835D01*
X105326707Y-81280000D01*
X105874885Y-81280000D01*
X105890124Y-81275525D01*
X105891329Y-81274135D01*
X105893000Y-81266452D01*
X105893000Y-80790115D01*
X105888525Y-80774876D01*
X105887135Y-80773671D01*
X105879452Y-80772000D01*
X105303347Y-80772000D01*
X105288802Y-80776271D01*
X105286739Y-80788404D01*
X103990176Y-80788404D01*
X104035003Y-80726020D01*
X104040313Y-80717183D01*
X104134670Y-80526267D01*
X104138469Y-80516672D01*
X104200377Y-80312910D01*
X104202555Y-80302837D01*
X104203986Y-80291962D01*
X104201775Y-80277778D01*
X104188617Y-80274000D01*
X103142115Y-80274000D01*
X103126876Y-80278475D01*
X103125671Y-80279865D01*
X103124000Y-80287548D01*
X103124000Y-82287885D01*
X102616000Y-82287885D01*
X102616000Y-79892000D01*
X102636002Y-79823879D01*
X102689658Y-79777386D01*
X102742000Y-79766000D01*
X104188344Y-79766000D01*
X104201875Y-79762027D01*
X104203180Y-79752947D01*
X104161214Y-79585875D01*
X104157894Y-79576124D01*
X104072972Y-79380814D01*
X104068105Y-79371739D01*
X103952426Y-79192926D01*
X103946136Y-79184757D01*
X103802293Y-79026677D01*
X103771241Y-78962831D01*
X103779635Y-78892333D01*
X103824812Y-78837564D01*
X103851256Y-78823895D01*
X103958297Y-78783767D01*
X103966705Y-78780615D01*
X104083261Y-78693261D01*
X104170615Y-78576705D01*
X104221745Y-78440316D01*
X104228500Y-78378134D01*
X104228500Y-78330820D01*
X104248502Y-78262699D01*
X104302158Y-78216206D01*
X104335983Y-78206188D01*
X104405736Y-78195825D01*
X104418802Y-78194575D01*
X104545009Y-78189122D01*
X104556692Y-78188617D01*
X104562131Y-78188500D01*
X105155000Y-78188500D01*
X105223121Y-78208502D01*
G37*
%TD.AperFunction*%
%TA.AperFunction,Conductor*%
G36*
X108989121Y-77690502D02*
G01*
X109035614Y-77744158D01*
X109047000Y-77796500D01*
X109047000Y-78278885D01*
X109051475Y-78294124D01*
X109052865Y-78295329D01*
X109060548Y-78297000D01*
X109983000Y-78297000D01*
X110051121Y-78317002D01*
X110097614Y-78370658D01*
X110109000Y-78423000D01*
X110109000Y-80012878D01*
X110112973Y-80026409D01*
X110120871Y-80027544D01*
X110260790Y-79986893D01*
X110275221Y-79980648D01*
X110404676Y-79904090D01*
X110412364Y-79898126D01*
X110478449Y-79872179D01*
X110548072Y-79886080D01*
X110564158Y-79896418D01*
X110568193Y-79900453D01*
X110711399Y-79985145D01*
X110719010Y-79987356D01*
X110719012Y-79987357D01*
X110762885Y-80000103D01*
X110871169Y-80031562D01*
X110877574Y-80032066D01*
X110877579Y-80032067D01*
X110906042Y-80034307D01*
X110906050Y-80034307D01*
X110908498Y-80034500D01*
X111341502Y-80034500D01*
X111343950Y-80034307D01*
X111343958Y-80034307D01*
X111372421Y-80032067D01*
X111372426Y-80032066D01*
X111378831Y-80031562D01*
X111487115Y-80000103D01*
X111530988Y-79987357D01*
X111530990Y-79987356D01*
X111538601Y-79985145D01*
X111681807Y-79900453D01*
X111684489Y-79897771D01*
X111748861Y-79872498D01*
X111818484Y-79886400D01*
X111834312Y-79896572D01*
X111838193Y-79900453D01*
X111981399Y-79985145D01*
X111989010Y-79987356D01*
X111989012Y-79987357D01*
X112032885Y-80000103D01*
X112141169Y-80031562D01*
X112147574Y-80032066D01*
X112147579Y-80032067D01*
X112176042Y-80034307D01*
X112176050Y-80034307D01*
X112178498Y-80034500D01*
X112611502Y-80034500D01*
X112613950Y-80034307D01*
X112613958Y-80034307D01*
X112642421Y-80032067D01*
X112642426Y-80032066D01*
X112648831Y-80031562D01*
X112757115Y-80000103D01*
X112800988Y-79987357D01*
X112800990Y-79987356D01*
X112808601Y-79985145D01*
X112951807Y-79900453D01*
X112954489Y-79897771D01*
X113018861Y-79872498D01*
X113088484Y-79886400D01*
X113104312Y-79896572D01*
X113108193Y-79900453D01*
X113251399Y-79985145D01*
X113259010Y-79987356D01*
X113259012Y-79987357D01*
X113302885Y-80000103D01*
X113411169Y-80031562D01*
X113417574Y-80032066D01*
X113417579Y-80032067D01*
X113446042Y-80034307D01*
X113446050Y-80034307D01*
X113448498Y-80034500D01*
X113881502Y-80034500D01*
X113883950Y-80034307D01*
X113883958Y-80034307D01*
X113912421Y-80032067D01*
X113912426Y-80032066D01*
X113918831Y-80031562D01*
X114027115Y-80000103D01*
X114070988Y-79987357D01*
X114070990Y-79987356D01*
X114078601Y-79985145D01*
X114133735Y-79952539D01*
X114214980Y-79904491D01*
X114214983Y-79904489D01*
X114221807Y-79900453D01*
X114339453Y-79782807D01*
X114343489Y-79775983D01*
X114343491Y-79775980D01*
X114420108Y-79646427D01*
X114424145Y-79639601D01*
X114426415Y-79631790D01*
X114451815Y-79544360D01*
X114470562Y-79479831D01*
X114471631Y-79480142D01*
X114500729Y-79422316D01*
X114561863Y-79386217D01*
X114632809Y-79388900D01*
X114691042Y-79429513D01*
X114699395Y-79441589D01*
X114701685Y-79446805D01*
X114731559Y-79485736D01*
X114740579Y-79497491D01*
X114744459Y-79502832D01*
X114776339Y-79549220D01*
X114776344Y-79549225D01*
X114780643Y-79555481D01*
X114786312Y-79560532D01*
X114827169Y-79596935D01*
X114832444Y-79601915D01*
X115213062Y-79982532D01*
X115218917Y-79988799D01*
X115256939Y-80032385D01*
X115309229Y-80069136D01*
X115314471Y-80073028D01*
X115364782Y-80112476D01*
X115371701Y-80115600D01*
X115373993Y-80116988D01*
X115388665Y-80125357D01*
X115391025Y-80126622D01*
X115397239Y-80130990D01*
X115404318Y-80133750D01*
X115404320Y-80133751D01*
X115456775Y-80154202D01*
X115462844Y-80156753D01*
X115521073Y-80183045D01*
X115528546Y-80184430D01*
X115531112Y-80185234D01*
X115547335Y-80189855D01*
X115549927Y-80190520D01*
X115557009Y-80193282D01*
X115564544Y-80194274D01*
X115620361Y-80201622D01*
X115626877Y-80202654D01*
X115636449Y-80204428D01*
X115689686Y-80214295D01*
X115697266Y-80213858D01*
X115697267Y-80213858D01*
X115751880Y-80210709D01*
X115759133Y-80210500D01*
X115789464Y-80210500D01*
X115854735Y-80228724D01*
X115925882Y-80271812D01*
X115925886Y-80271814D01*
X115932382Y-80275748D01*
X115939629Y-80278019D01*
X115939631Y-80278020D01*
X116001785Y-80297498D01*
X116086781Y-80324134D01*
X116156063Y-80330500D01*
X116158961Y-80330500D01*
X116407651Y-80330499D01*
X116657936Y-80330499D01*
X116660795Y-80330236D01*
X116660803Y-80330236D01*
X116694576Y-80327133D01*
X116727219Y-80324134D01*
X116789667Y-80304564D01*
X116874369Y-80278020D01*
X116874371Y-80278019D01*
X116881618Y-80275748D01*
X116888114Y-80271814D01*
X116888116Y-80271813D01*
X116939229Y-80240858D01*
X117007859Y-80222679D01*
X117069771Y-80240858D01*
X117120884Y-80271813D01*
X117120886Y-80271814D01*
X117127382Y-80275748D01*
X117134629Y-80278019D01*
X117134631Y-80278020D01*
X117196785Y-80297498D01*
X117281781Y-80324134D01*
X117351063Y-80330500D01*
X117353961Y-80330500D01*
X117602651Y-80330499D01*
X117852936Y-80330499D01*
X117855795Y-80330236D01*
X117855803Y-80330236D01*
X117889576Y-80327133D01*
X117922219Y-80324134D01*
X117984667Y-80304564D01*
X118069369Y-80278020D01*
X118069371Y-80278019D01*
X118076618Y-80275748D01*
X118154264Y-80228724D01*
X118168983Y-80219810D01*
X118219117Y-80202499D01*
X118238549Y-80200147D01*
X118280242Y-80195102D01*
X118287343Y-80192419D01*
X118289952Y-80191778D01*
X118306262Y-80187315D01*
X118308798Y-80186550D01*
X118316284Y-80185243D01*
X118374800Y-80159556D01*
X118380904Y-80157065D01*
X118433548Y-80137173D01*
X118433549Y-80137172D01*
X118440656Y-80134487D01*
X118446919Y-80130183D01*
X118449285Y-80128946D01*
X118464097Y-80120701D01*
X118466351Y-80119368D01*
X118473305Y-80116315D01*
X118524002Y-80077413D01*
X118529332Y-80073541D01*
X118575720Y-80041661D01*
X118575725Y-80041656D01*
X118581981Y-80037357D01*
X118588744Y-80029767D01*
X118623435Y-79990830D01*
X118628416Y-79985554D01*
X119149716Y-79464254D01*
X119212028Y-79430228D01*
X119282843Y-79435293D01*
X119339679Y-79477840D01*
X119364490Y-79544360D01*
X119360228Y-79587021D01*
X119345646Y-79639601D01*
X119310989Y-79764570D01*
X119287251Y-79986695D01*
X119287548Y-79991853D01*
X119287422Y-79997023D01*
X119287334Y-79997021D01*
X119287083Y-80009796D01*
X119285841Y-80022592D01*
X119285834Y-80022672D01*
X119285801Y-80023011D01*
X119285425Y-80027544D01*
X119284849Y-80034500D01*
X119284624Y-80037208D01*
X119284579Y-80037862D01*
X119283801Y-80052079D01*
X119277890Y-80197335D01*
X119277651Y-80204428D01*
X119277642Y-80204765D01*
X119277638Y-80204970D01*
X119277636Y-80205058D01*
X119277529Y-80210709D01*
X119277494Y-80212516D01*
X119277491Y-80212773D01*
X119277491Y-80212777D01*
X119276015Y-80341809D01*
X119275996Y-80342969D01*
X119273901Y-80444429D01*
X119273552Y-80451558D01*
X119268554Y-80516089D01*
X119266830Y-80529269D01*
X119260301Y-80564578D01*
X119255790Y-80581945D01*
X119247836Y-80605522D01*
X119240192Y-80623461D01*
X119222888Y-80656676D01*
X119213514Y-80671918D01*
X119172218Y-80729468D01*
X119163037Y-80740813D01*
X119082320Y-80829513D01*
X119078225Y-80833805D01*
X117031935Y-82880095D01*
X116969623Y-82914121D01*
X116942840Y-82917000D01*
X116003314Y-82917000D01*
X115935193Y-82896998D01*
X115888700Y-82843342D01*
X115877843Y-82779470D01*
X115879537Y-82761038D01*
X115875525Y-82747376D01*
X115874135Y-82746171D01*
X115866452Y-82744500D01*
X114934000Y-82744500D01*
X114865879Y-82724498D01*
X114819386Y-82670842D01*
X114808000Y-82618500D01*
X114808000Y-82218385D01*
X115316000Y-82218385D01*
X115320475Y-82233624D01*
X115321865Y-82234829D01*
X115329548Y-82236500D01*
X115861885Y-82236500D01*
X115877124Y-82232025D01*
X115878329Y-82230635D01*
X115879813Y-82223814D01*
X115879734Y-82222112D01*
X115874298Y-82162954D01*
X115871685Y-82149904D01*
X115827971Y-82010411D01*
X115821765Y-81996666D01*
X115746504Y-81872396D01*
X115737197Y-81860527D01*
X115634473Y-81757803D01*
X115622604Y-81748496D01*
X115498334Y-81673235D01*
X115484589Y-81667029D01*
X115345088Y-81623313D01*
X115333497Y-81620991D01*
X115319165Y-81623806D01*
X115316000Y-81635702D01*
X115316000Y-82218385D01*
X114808000Y-82218385D01*
X114808000Y-81637342D01*
X114803729Y-81622797D01*
X114791698Y-81620752D01*
X114778912Y-81623313D01*
X114639411Y-81667029D01*
X114625666Y-81673235D01*
X114501396Y-81748496D01*
X114489527Y-81757803D01*
X114386803Y-81860527D01*
X114377496Y-81872396D01*
X114302235Y-81996666D01*
X114296032Y-82010406D01*
X114294652Y-82014809D01*
X114255197Y-82073833D01*
X114190094Y-82102156D01*
X114120014Y-82090785D01*
X114110291Y-82085597D01*
X114078601Y-82066855D01*
X114070990Y-82064644D01*
X114070988Y-82064643D01*
X114002920Y-82044868D01*
X113918831Y-82020438D01*
X113912426Y-82019934D01*
X113912421Y-82019933D01*
X113883958Y-82017693D01*
X113883950Y-82017693D01*
X113881502Y-82017500D01*
X113448498Y-82017500D01*
X113446050Y-82017693D01*
X113446042Y-82017693D01*
X113417579Y-82019933D01*
X113417574Y-82019934D01*
X113411169Y-82020438D01*
X113327080Y-82044868D01*
X113259012Y-82064643D01*
X113259010Y-82064644D01*
X113251399Y-82066855D01*
X113108193Y-82151547D01*
X113105511Y-82154229D01*
X113041139Y-82179502D01*
X112971516Y-82165600D01*
X112955688Y-82155428D01*
X112951807Y-82151547D01*
X112808601Y-82066855D01*
X112800990Y-82064644D01*
X112800988Y-82064643D01*
X112732920Y-82044868D01*
X112648831Y-82020438D01*
X112642426Y-82019934D01*
X112642421Y-82019933D01*
X112613958Y-82017693D01*
X112613950Y-82017693D01*
X112611502Y-82017500D01*
X112178498Y-82017500D01*
X112176050Y-82017693D01*
X112176042Y-82017693D01*
X112147579Y-82019933D01*
X112147574Y-82019934D01*
X112141169Y-82020438D01*
X112057080Y-82044868D01*
X111989012Y-82064643D01*
X111989010Y-82064644D01*
X111981399Y-82066855D01*
X111838193Y-82151547D01*
X111835511Y-82154229D01*
X111771139Y-82179502D01*
X111701516Y-82165600D01*
X111685688Y-82155428D01*
X111681807Y-82151547D01*
X111538601Y-82066855D01*
X111530990Y-82064644D01*
X111530988Y-82064643D01*
X111462920Y-82044868D01*
X111378831Y-82020438D01*
X111372426Y-82019934D01*
X111372421Y-82019933D01*
X111343958Y-82017693D01*
X111343950Y-82017693D01*
X111341502Y-82017500D01*
X110908498Y-82017500D01*
X110906050Y-82017693D01*
X110906042Y-82017693D01*
X110877579Y-82019933D01*
X110877574Y-82019934D01*
X110871169Y-82020438D01*
X110787080Y-82044868D01*
X110719012Y-82064643D01*
X110719010Y-82064644D01*
X110711399Y-82066855D01*
X110568193Y-82151547D01*
X110565511Y-82154229D01*
X110501139Y-82179502D01*
X110431516Y-82165600D01*
X110415688Y-82155428D01*
X110411807Y-82151547D01*
X110268601Y-82066855D01*
X110260990Y-82064644D01*
X110260988Y-82064643D01*
X110192920Y-82044868D01*
X110108831Y-82020438D01*
X110102426Y-82019934D01*
X110102421Y-82019933D01*
X110073958Y-82017693D01*
X110073950Y-82017693D01*
X110071502Y-82017500D01*
X109638498Y-82017500D01*
X109636050Y-82017693D01*
X109636042Y-82017693D01*
X109607579Y-82019933D01*
X109607574Y-82019934D01*
X109601169Y-82020438D01*
X109517080Y-82044868D01*
X109449012Y-82064643D01*
X109449010Y-82064644D01*
X109441399Y-82066855D01*
X109434572Y-82070892D01*
X109434573Y-82070892D01*
X109305020Y-82147509D01*
X109305017Y-82147511D01*
X109298193Y-82151547D01*
X109180547Y-82269193D01*
X109176511Y-82276017D01*
X109176509Y-82276020D01*
X109112893Y-82383589D01*
X109095855Y-82412399D01*
X109049438Y-82572169D01*
X109046500Y-82609498D01*
X109046500Y-82731500D01*
X109026498Y-82799621D01*
X108972842Y-82846114D01*
X108920500Y-82857500D01*
X108359000Y-82857500D01*
X108290879Y-82837498D01*
X108244386Y-82783842D01*
X108233000Y-82731500D01*
X108232999Y-82339447D01*
X108232999Y-82336564D01*
X108232734Y-82333672D01*
X108227245Y-82273935D01*
X108226634Y-82267281D01*
X108216464Y-82234829D01*
X108180520Y-82120131D01*
X108180519Y-82120129D01*
X108178248Y-82112882D01*
X108174315Y-82106387D01*
X108171186Y-82099458D01*
X108172612Y-82098814D01*
X108156671Y-82038649D01*
X108172397Y-81985089D01*
X108171186Y-81984542D01*
X108174315Y-81977613D01*
X108178248Y-81971118D01*
X108226634Y-81816719D01*
X108233000Y-81747437D01*
X108232999Y-81320564D01*
X108230537Y-81293759D01*
X108228861Y-81275525D01*
X108226634Y-81251281D01*
X108215443Y-81215571D01*
X108180520Y-81104131D01*
X108180519Y-81104129D01*
X108178248Y-81096882D01*
X108161024Y-81068442D01*
X108142844Y-80999812D01*
X108152995Y-80955535D01*
X108153248Y-80955118D01*
X108201634Y-80800719D01*
X108208000Y-80731437D01*
X108207999Y-80304564D01*
X108206842Y-80291962D01*
X108202615Y-80245961D01*
X108201634Y-80235281D01*
X108191965Y-80204428D01*
X108155520Y-80088131D01*
X108155519Y-80088129D01*
X108153248Y-80080882D01*
X108149315Y-80074387D01*
X108146186Y-80067458D01*
X108147612Y-80066814D01*
X108131671Y-80006649D01*
X108147397Y-79953089D01*
X108146186Y-79952542D01*
X108149315Y-79945613D01*
X108153248Y-79939118D01*
X108164226Y-79904089D01*
X108199633Y-79791103D01*
X108201634Y-79784719D01*
X108208000Y-79715437D01*
X108207999Y-79439984D01*
X109047001Y-79439984D01*
X109047195Y-79444920D01*
X109049430Y-79473336D01*
X109051730Y-79485931D01*
X109094107Y-79631790D01*
X109100352Y-79646221D01*
X109176911Y-79775678D01*
X109186551Y-79788104D01*
X109292896Y-79894449D01*
X109305322Y-79904089D01*
X109434779Y-79980648D01*
X109449210Y-79986893D01*
X109583605Y-80025939D01*
X109597706Y-80025899D01*
X109601000Y-80018630D01*
X109601000Y-78823115D01*
X109596525Y-78807876D01*
X109595135Y-78806671D01*
X109587452Y-78805000D01*
X109065116Y-78805000D01*
X109049877Y-78809475D01*
X109048672Y-78810865D01*
X109047001Y-78818548D01*
X109047001Y-79439984D01*
X108207999Y-79439984D01*
X108207999Y-79288564D01*
X108207734Y-79285672D01*
X108202245Y-79225935D01*
X108201634Y-79219281D01*
X108184722Y-79165315D01*
X108155520Y-79072131D01*
X108155519Y-79072129D01*
X108153248Y-79064882D01*
X108149315Y-79058387D01*
X108146186Y-79051458D01*
X108147612Y-79050814D01*
X108131671Y-78990649D01*
X108147397Y-78937089D01*
X108146186Y-78936542D01*
X108149315Y-78929613D01*
X108153248Y-78923118D01*
X108162896Y-78892333D01*
X108190264Y-78805000D01*
X108201634Y-78768719D01*
X108208000Y-78699437D01*
X108207999Y-78272564D01*
X108201634Y-78203281D01*
X108153248Y-78048882D01*
X108095735Y-77953917D01*
X108077557Y-77885290D01*
X108099367Y-77817727D01*
X108114417Y-77799553D01*
X108206565Y-77707405D01*
X108268877Y-77673379D01*
X108295660Y-77670500D01*
X108921000Y-77670500D01*
X108989121Y-77690502D01*
G37*
%TD.AperFunction*%
%TA.AperFunction,Conductor*%
G36*
X119233621Y-76728002D02*
G01*
X119280114Y-76781658D01*
X119291500Y-76834000D01*
X119291500Y-76998804D01*
X119275950Y-77059441D01*
X119242407Y-77120539D01*
X119217059Y-77166710D01*
X119213097Y-77174071D01*
X119212926Y-77174395D01*
X119209215Y-77181562D01*
X119209106Y-77181777D01*
X119149950Y-77298310D01*
X119149443Y-77299298D01*
X119094430Y-77405344D01*
X119091631Y-77410446D01*
X119036572Y-77505561D01*
X119031851Y-77513091D01*
X118966237Y-77609975D01*
X118960315Y-77618014D01*
X118888807Y-77707405D01*
X118872090Y-77728303D01*
X118865800Y-77735578D01*
X118745653Y-77864273D01*
X118742646Y-77867384D01*
X117971278Y-78638752D01*
X117908966Y-78672778D01*
X117870654Y-78675128D01*
X117852937Y-78673500D01*
X117850039Y-78673500D01*
X117601349Y-78673501D01*
X117351064Y-78673501D01*
X117348205Y-78673764D01*
X117348197Y-78673764D01*
X117314424Y-78676867D01*
X117281781Y-78679866D01*
X117275403Y-78681865D01*
X117275402Y-78681865D01*
X117268114Y-78684149D01*
X117197129Y-78685433D01*
X117136719Y-78648136D01*
X117106062Y-78584100D01*
X117110201Y-78526236D01*
X117151637Y-78394011D01*
X117154250Y-78380964D01*
X117158056Y-78339541D01*
X117155134Y-78324664D01*
X117143240Y-78321500D01*
X116270500Y-78321500D01*
X116202379Y-78301498D01*
X116155886Y-78247842D01*
X116144500Y-78195500D01*
X116144499Y-77939500D01*
X116164501Y-77871380D01*
X116218156Y-77824887D01*
X116270499Y-77813500D01*
X117141598Y-77813500D01*
X117156143Y-77809229D01*
X117158206Y-77797096D01*
X117154249Y-77754027D01*
X117151639Y-77740994D01*
X117107561Y-77600339D01*
X117101352Y-77586588D01*
X117070566Y-77535755D01*
X117052386Y-77467126D01*
X117070566Y-77405211D01*
X117101811Y-77353620D01*
X117101813Y-77353615D01*
X117105748Y-77347118D01*
X117123821Y-77289449D01*
X117141592Y-77232739D01*
X117154134Y-77192719D01*
X117160500Y-77123437D01*
X117160499Y-76833999D01*
X117180501Y-76765880D01*
X117234156Y-76719387D01*
X117286499Y-76708000D01*
X119165500Y-76708000D01*
X119233621Y-76728002D01*
G37*
%TD.AperFunction*%
%TD*%
M02*
