%TF.GenerationSoftware,KiCad,Pcbnew,(6.0.2-0)*%
%TF.CreationDate,2022-02-21T15:14:00+09:00*%
%TF.ProjectId,PodForBreadboard,506f6446-6f72-4427-9265-6164626f6172,rev?*%
%TF.SameCoordinates,Original*%
%TF.FileFunction,Legend,Bot*%
%TF.FilePolarity,Positive*%
%FSLAX46Y46*%
G04 Gerber Fmt 4.6, Leading zero omitted, Abs format (unit mm)*
G04 Created by KiCad (PCBNEW (6.0.2-0)) date 2022-02-21 15:14:00*
%MOMM*%
%LPD*%
G01*
G04 APERTURE LIST*
G04 Aperture macros list*
%AMRoundRect*
0 Rectangle with rounded corners*
0 $1 Rounding radius*
0 $2 $3 $4 $5 $6 $7 $8 $9 X,Y pos of 4 corners*
0 Add a 4 corners polygon primitive as box body*
4,1,4,$2,$3,$4,$5,$6,$7,$8,$9,$2,$3,0*
0 Add four circle primitives for the rounded corners*
1,1,$1+$1,$2,$3*
1,1,$1+$1,$4,$5*
1,1,$1+$1,$6,$7*
1,1,$1+$1,$8,$9*
0 Add four rect primitives between the rounded corners*
20,1,$1+$1,$2,$3,$4,$5,0*
20,1,$1+$1,$4,$5,$6,$7,0*
20,1,$1+$1,$6,$7,$8,$9,0*
20,1,$1+$1,$8,$9,$2,$3,0*%
G04 Aperture macros list end*
%ADD10C,0.150000*%
%ADD11C,0.120000*%
%ADD12RoundRect,0.600000X0.650000X-0.600000X0.650000X0.600000X-0.650000X0.600000X-0.650000X-0.600000X0*%
%ADD13C,1.400000*%
%ADD14R,1.700000X1.700000*%
%ADD15O,1.700000X1.700000*%
G04 APERTURE END LIST*
D10*
X112823047Y-64476380D02*
X112823047Y-65190666D01*
X112870666Y-65333523D01*
X112965904Y-65428761D01*
X113108761Y-65476380D01*
X113204000Y-65476380D01*
X111870666Y-65476380D02*
X112346857Y-65476380D01*
X112346857Y-64476380D01*
X110965904Y-65381142D02*
X111013523Y-65428761D01*
X111156380Y-65476380D01*
X111251619Y-65476380D01*
X111394476Y-65428761D01*
X111489714Y-65333523D01*
X111537333Y-65238285D01*
X111584952Y-65047809D01*
X111584952Y-64904952D01*
X111537333Y-64714476D01*
X111489714Y-64619238D01*
X111394476Y-64524000D01*
X111251619Y-64476380D01*
X111156380Y-64476380D01*
X111013523Y-64524000D01*
X110965904Y-64571619D01*
X110251619Y-64476380D02*
X110251619Y-65190666D01*
X110299238Y-65333523D01*
X110394476Y-65428761D01*
X110537333Y-65476380D01*
X110632571Y-65476380D01*
X109299238Y-65476380D02*
X109775428Y-65476380D01*
X109775428Y-64476380D01*
X108394476Y-65381142D02*
X108442095Y-65428761D01*
X108584952Y-65476380D01*
X108680190Y-65476380D01*
X108823047Y-65428761D01*
X108918285Y-65333523D01*
X108965904Y-65238285D01*
X109013523Y-65047809D01*
X109013523Y-64904952D01*
X108965904Y-64714476D01*
X108918285Y-64619238D01*
X108823047Y-64524000D01*
X108680190Y-64476380D01*
X108584952Y-64476380D01*
X108442095Y-64524000D01*
X108394476Y-64571619D01*
X107680190Y-64476380D02*
X107680190Y-65190666D01*
X107727809Y-65333523D01*
X107823047Y-65428761D01*
X107965904Y-65476380D01*
X108061142Y-65476380D01*
X106727809Y-65476380D02*
X107204000Y-65476380D01*
X107204000Y-64476380D01*
X105823047Y-65381142D02*
X105870666Y-65428761D01*
X106013523Y-65476380D01*
X106108761Y-65476380D01*
X106251619Y-65428761D01*
X106346857Y-65333523D01*
X106394476Y-65238285D01*
X106442095Y-65047809D01*
X106442095Y-64904952D01*
X106394476Y-64714476D01*
X106346857Y-64619238D01*
X106251619Y-64524000D01*
X106108761Y-64476380D01*
X106013523Y-64476380D01*
X105870666Y-64524000D01*
X105823047Y-64571619D01*
X105108761Y-64476380D02*
X105108761Y-65190666D01*
X105156380Y-65333523D01*
X105251619Y-65428761D01*
X105394476Y-65476380D01*
X105489714Y-65476380D01*
X104156380Y-65476380D02*
X104632571Y-65476380D01*
X104632571Y-64476380D01*
X103251619Y-65381142D02*
X103299238Y-65428761D01*
X103442095Y-65476380D01*
X103537333Y-65476380D01*
X103680190Y-65428761D01*
X103775428Y-65333523D01*
X103823047Y-65238285D01*
X103870666Y-65047809D01*
X103870666Y-64904952D01*
X103823047Y-64714476D01*
X103775428Y-64619238D01*
X103680190Y-64524000D01*
X103537333Y-64476380D01*
X103442095Y-64476380D01*
X103299238Y-64524000D01*
X103251619Y-64571619D01*
D11*
%TO.C,J1*%
X110545000Y-58360000D02*
X110545000Y-63560000D01*
X107945000Y-58360000D02*
X107945000Y-60960000D01*
X107945000Y-58360000D02*
X110545000Y-58360000D01*
X106675000Y-58360000D02*
X105345000Y-58360000D01*
X105345000Y-58360000D02*
X105345000Y-59690000D01*
X105345000Y-63560000D02*
X110545000Y-63560000D01*
X105345000Y-60960000D02*
X105345000Y-63560000D01*
X107945000Y-60960000D02*
X105345000Y-60960000D01*
%TO.C,J2*%
X105410000Y-68520000D02*
X113090000Y-68520000D01*
X105410000Y-68520000D02*
X105410000Y-71180000D01*
X105410000Y-71180000D02*
X113090000Y-71180000D01*
X113090000Y-68520000D02*
X113090000Y-71180000D01*
X102810000Y-68520000D02*
X102810000Y-69850000D01*
X104140000Y-68520000D02*
X102810000Y-68520000D01*
%TD*%
%LPC*%
D12*
%TO.C,RV1*%
X102650000Y-60706000D03*
X113250000Y-60706000D03*
D13*
X105450000Y-67706000D03*
X107950000Y-67706000D03*
X110450000Y-67706000D03*
%TD*%
D14*
%TO.C,J1*%
X106675000Y-59690000D03*
D15*
X106675000Y-62230000D03*
X109215000Y-59690000D03*
X109215000Y-62230000D03*
%TD*%
D14*
%TO.C,J2*%
X104140000Y-69850000D03*
D15*
X106680000Y-69850000D03*
X109220000Y-69850000D03*
X111760000Y-69850000D03*
%TD*%
M02*
