%TF.GenerationSoftware,KiCad,Pcbnew,(6.0.2-0)*%
%TF.CreationDate,2022-02-21T15:14:00+09:00*%
%TF.ProjectId,PodForBreadboard,506f6446-6f72-4427-9265-6164626f6172,rev?*%
%TF.SameCoordinates,Original*%
%TF.FileFunction,Copper,L1,Top*%
%TF.FilePolarity,Positive*%
%FSLAX46Y46*%
G04 Gerber Fmt 4.6, Leading zero omitted, Abs format (unit mm)*
G04 Created by KiCad (PCBNEW (6.0.2-0)) date 2022-02-21 15:14:00*
%MOMM*%
%LPD*%
G01*
G04 APERTURE LIST*
G04 Aperture macros list*
%AMRoundRect*
0 Rectangle with rounded corners*
0 $1 Rounding radius*
0 $2 $3 $4 $5 $6 $7 $8 $9 X,Y pos of 4 corners*
0 Add a 4 corners polygon primitive as box body*
4,1,4,$2,$3,$4,$5,$6,$7,$8,$9,$2,$3,0*
0 Add four circle primitives for the rounded corners*
1,1,$1+$1,$2,$3*
1,1,$1+$1,$4,$5*
1,1,$1+$1,$6,$7*
1,1,$1+$1,$8,$9*
0 Add four rect primitives between the rounded corners*
20,1,$1+$1,$2,$3,$4,$5,0*
20,1,$1+$1,$4,$5,$6,$7,0*
20,1,$1+$1,$6,$7,$8,$9,0*
20,1,$1+$1,$8,$9,$2,$3,0*%
G04 Aperture macros list end*
%TA.AperFunction,ComponentPad*%
%ADD10RoundRect,0.600000X0.650000X-0.600000X0.650000X0.600000X-0.650000X0.600000X-0.650000X-0.600000X0*%
%TD*%
%TA.AperFunction,ComponentPad*%
%ADD11C,1.400000*%
%TD*%
%TA.AperFunction,ComponentPad*%
%ADD12R,1.700000X1.700000*%
%TD*%
%TA.AperFunction,ComponentPad*%
%ADD13O,1.700000X1.700000*%
%TD*%
%TA.AperFunction,Conductor*%
%ADD14C,0.800000*%
%TD*%
G04 APERTURE END LIST*
D10*
%TO.P,RV1,*%
%TO.N,*%
X102650000Y-60706000D03*
X113250000Y-60706000D03*
D11*
%TO.P,RV1,1,1*%
%TO.N,GND*%
X105450000Y-67706000D03*
%TO.P,RV1,2,2*%
%TO.N,/2*%
X107950000Y-67706000D03*
%TO.P,RV1,3,3*%
%TO.N,VDD*%
X110450000Y-67706000D03*
%TD*%
D12*
%TO.P,J1,1,Pin_1*%
%TO.N,VDD*%
X106675000Y-59690000D03*
D13*
%TO.P,J1,2,Pin_2*%
%TO.N,GND*%
X106675000Y-62230000D03*
%TO.P,J1,3,Pin_3*%
%TO.N,VDD*%
X109215000Y-59690000D03*
%TO.P,J1,4,Pin_4*%
%TO.N,GND*%
X109215000Y-62230000D03*
%TD*%
D12*
%TO.P,J2,1,Pin_1*%
%TO.N,GND*%
X104140000Y-69850000D03*
D13*
%TO.P,J2,2,Pin_2*%
%TO.N,/2*%
X106680000Y-69850000D03*
%TO.P,J2,3,Pin_3*%
X109220000Y-69850000D03*
%TO.P,J2,4,Pin_4*%
%TO.N,VDD*%
X111760000Y-69850000D03*
%TD*%
D14*
%TO.N,/2*%
X106680000Y-68820000D02*
X106680000Y-69850000D01*
X106680000Y-69850000D02*
X109220000Y-69850000D01*
X107794000Y-67706000D02*
X106680000Y-68820000D01*
X109220000Y-69850000D02*
X109220000Y-68976000D01*
X107950000Y-67706000D02*
X107794000Y-67706000D01*
X109220000Y-68976000D02*
X107950000Y-67706000D01*
%TD*%
%TA.AperFunction,Conductor*%
%TO.N,VDD*%
G36*
X114496121Y-56408002D02*
G01*
X114542614Y-56461658D01*
X114554000Y-56514000D01*
X114554000Y-58989139D01*
X114533998Y-59057260D01*
X114480342Y-59103753D01*
X114410068Y-59113857D01*
X114378467Y-59104994D01*
X114238554Y-59045171D01*
X114031848Y-59000291D01*
X114024301Y-58999843D01*
X113986727Y-58997610D01*
X113986714Y-58997610D01*
X113984869Y-58997500D01*
X113267576Y-58997500D01*
X112515132Y-58997501D01*
X112513195Y-58997621D01*
X112513185Y-58997621D01*
X112482818Y-58999498D01*
X112466223Y-59000523D01*
X112461490Y-59001559D01*
X112461485Y-59001560D01*
X112277978Y-59041739D01*
X112259595Y-59045764D01*
X112065251Y-59129261D01*
X112060291Y-59132625D01*
X112060290Y-59132626D01*
X111896978Y-59243405D01*
X111890202Y-59248001D01*
X111740764Y-59397700D01*
X111737407Y-59402667D01*
X111737405Y-59402670D01*
X111625689Y-59567984D01*
X111625686Y-59567989D01*
X111622329Y-59572957D01*
X111539171Y-59767446D01*
X111494291Y-59974152D01*
X111494002Y-59979017D01*
X111491616Y-60019185D01*
X111491500Y-60021131D01*
X111491501Y-61390868D01*
X111491621Y-61392805D01*
X111491621Y-61392815D01*
X111491959Y-61398277D01*
X111494523Y-61439777D01*
X111495559Y-61444510D01*
X111495560Y-61444515D01*
X111518993Y-61551538D01*
X111539764Y-61646405D01*
X111623261Y-61840749D01*
X111626625Y-61845709D01*
X111626626Y-61845710D01*
X111737614Y-62009330D01*
X111742001Y-62015798D01*
X111891700Y-62165236D01*
X111896667Y-62168593D01*
X111896670Y-62168595D01*
X112061984Y-62280311D01*
X112061989Y-62280314D01*
X112066957Y-62283671D01*
X112072473Y-62286030D01*
X112072474Y-62286030D01*
X112104932Y-62299908D01*
X112261446Y-62366829D01*
X112468152Y-62411709D01*
X112473017Y-62411998D01*
X112513273Y-62414390D01*
X112513286Y-62414390D01*
X112515131Y-62414500D01*
X113232424Y-62414500D01*
X113984868Y-62414499D01*
X113986805Y-62414379D01*
X113986815Y-62414379D01*
X114017182Y-62412502D01*
X114033777Y-62411477D01*
X114038510Y-62410441D01*
X114038515Y-62410440D01*
X114234550Y-62367518D01*
X114234551Y-62367518D01*
X114240405Y-62366236D01*
X114378261Y-62307008D01*
X114448747Y-62298496D01*
X114512644Y-62329441D01*
X114549668Y-62390020D01*
X114554000Y-62422776D01*
X114554000Y-70486000D01*
X114533998Y-70554121D01*
X114480342Y-70600614D01*
X114428000Y-70612000D01*
X113101100Y-70612000D01*
X113032979Y-70591998D01*
X112986486Y-70538342D01*
X112976382Y-70468068D01*
X112988143Y-70430172D01*
X113024672Y-70356262D01*
X113028469Y-70346672D01*
X113090377Y-70142910D01*
X113092555Y-70132837D01*
X113093986Y-70121962D01*
X113091775Y-70107778D01*
X113078617Y-70104000D01*
X111632000Y-70104000D01*
X111563879Y-70083998D01*
X111517386Y-70030342D01*
X111506000Y-69978000D01*
X111506000Y-69577885D01*
X112014000Y-69577885D01*
X112018475Y-69593124D01*
X112019865Y-69594329D01*
X112027548Y-69596000D01*
X113078344Y-69596000D01*
X113091875Y-69592027D01*
X113093180Y-69582947D01*
X113051214Y-69415875D01*
X113047894Y-69406124D01*
X112962972Y-69210814D01*
X112958105Y-69201739D01*
X112842426Y-69022926D01*
X112836136Y-69014757D01*
X112692806Y-68857240D01*
X112685273Y-68850215D01*
X112518139Y-68718222D01*
X112509552Y-68712517D01*
X112323117Y-68609599D01*
X112313705Y-68605369D01*
X112112959Y-68534280D01*
X112102988Y-68531646D01*
X112031837Y-68518972D01*
X112018540Y-68520432D01*
X112014000Y-68534989D01*
X112014000Y-69577885D01*
X111506000Y-69577885D01*
X111506000Y-68533102D01*
X111501525Y-68517863D01*
X111496970Y-68513916D01*
X111458586Y-68454190D01*
X111458586Y-68383193D01*
X111476269Y-68346421D01*
X111496998Y-68316817D01*
X111502479Y-68307323D01*
X111587159Y-68125723D01*
X111590907Y-68115429D01*
X111642769Y-67921878D01*
X111644671Y-67911091D01*
X111662135Y-67711475D01*
X111662135Y-67700525D01*
X111644671Y-67500909D01*
X111642769Y-67490122D01*
X111590907Y-67296571D01*
X111587159Y-67286277D01*
X111502479Y-67104677D01*
X111497001Y-67095189D01*
X111475689Y-67064752D01*
X111465212Y-67056377D01*
X111451764Y-67063446D01*
X110539095Y-67976115D01*
X110476783Y-68010141D01*
X110405968Y-68005076D01*
X110360905Y-67976115D01*
X109447514Y-67062724D01*
X109435739Y-67056294D01*
X109423724Y-67065590D01*
X109402999Y-67095189D01*
X109397521Y-67104677D01*
X109314471Y-67282780D01*
X109267554Y-67336066D01*
X109199277Y-67355527D01*
X109131317Y-67334985D01*
X109086081Y-67282781D01*
X109085805Y-67282188D01*
X109000589Y-67099442D01*
X108879301Y-66926224D01*
X108729776Y-66776699D01*
X108607082Y-66690788D01*
X109800377Y-66690788D01*
X109807446Y-66704236D01*
X110437188Y-67333978D01*
X110451132Y-67341592D01*
X110452965Y-67341461D01*
X110459580Y-67337210D01*
X111093276Y-66703514D01*
X111099706Y-66691739D01*
X111090410Y-66679724D01*
X111060811Y-66658999D01*
X111051323Y-66653521D01*
X110869723Y-66568841D01*
X110859429Y-66565093D01*
X110665878Y-66513231D01*
X110655091Y-66511329D01*
X110455475Y-66493865D01*
X110444525Y-66493865D01*
X110244909Y-66511329D01*
X110234122Y-66513231D01*
X110040571Y-66565093D01*
X110030277Y-66568841D01*
X109848677Y-66653521D01*
X109839189Y-66658999D01*
X109808752Y-66680311D01*
X109800377Y-66690788D01*
X108607082Y-66690788D01*
X108556558Y-66655411D01*
X108551580Y-66653090D01*
X108551577Y-66653088D01*
X108369892Y-66568367D01*
X108369891Y-66568366D01*
X108364910Y-66566044D01*
X108359602Y-66564622D01*
X108359600Y-66564621D01*
X108165970Y-66512738D01*
X108165968Y-66512738D01*
X108160655Y-66511314D01*
X107950000Y-66492884D01*
X107739345Y-66511314D01*
X107734032Y-66512738D01*
X107734030Y-66512738D01*
X107540400Y-66564621D01*
X107540398Y-66564622D01*
X107535090Y-66566044D01*
X107530109Y-66568366D01*
X107530108Y-66568367D01*
X107348423Y-66653088D01*
X107348420Y-66653090D01*
X107343442Y-66655411D01*
X107170224Y-66776699D01*
X107020699Y-66926224D01*
X106899411Y-67099442D01*
X106897090Y-67104420D01*
X106897088Y-67104423D01*
X106814195Y-67282188D01*
X106767278Y-67335473D01*
X106699000Y-67354934D01*
X106631040Y-67334392D01*
X106585805Y-67282188D01*
X106502912Y-67104423D01*
X106502910Y-67104420D01*
X106500589Y-67099442D01*
X106379301Y-66926224D01*
X106229776Y-66776699D01*
X106056558Y-66655411D01*
X106051580Y-66653090D01*
X106051577Y-66653088D01*
X105869892Y-66568367D01*
X105869891Y-66568366D01*
X105864910Y-66566044D01*
X105859602Y-66564622D01*
X105859600Y-66564621D01*
X105665970Y-66512738D01*
X105665968Y-66512738D01*
X105660655Y-66511314D01*
X105450000Y-66492884D01*
X105239345Y-66511314D01*
X105234032Y-66512738D01*
X105234030Y-66512738D01*
X105040400Y-66564621D01*
X105040398Y-66564622D01*
X105035090Y-66566044D01*
X105030109Y-66568366D01*
X105030108Y-66568367D01*
X104848423Y-66653088D01*
X104848420Y-66653090D01*
X104843442Y-66655411D01*
X104670224Y-66776699D01*
X104520699Y-66926224D01*
X104399411Y-67099442D01*
X104397090Y-67104420D01*
X104397088Y-67104423D01*
X104312367Y-67286108D01*
X104310044Y-67291090D01*
X104308622Y-67296398D01*
X104308621Y-67296400D01*
X104297993Y-67336066D01*
X104255314Y-67495345D01*
X104236884Y-67706000D01*
X104255314Y-67916655D01*
X104256738Y-67921968D01*
X104256738Y-67921970D01*
X104280364Y-68010141D01*
X104310044Y-68120910D01*
X104312366Y-68125891D01*
X104312367Y-68125892D01*
X104399267Y-68312250D01*
X104409928Y-68382442D01*
X104380948Y-68447255D01*
X104321528Y-68486111D01*
X104285072Y-68491500D01*
X103241866Y-68491500D01*
X103179684Y-68498255D01*
X103043295Y-68549385D01*
X102926739Y-68636739D01*
X102839385Y-68753295D01*
X102788255Y-68889684D01*
X102781500Y-68951866D01*
X102781500Y-70486000D01*
X102761498Y-70554121D01*
X102707842Y-70600614D01*
X102655500Y-70612000D01*
X101472000Y-70612000D01*
X101403879Y-70591998D01*
X101357386Y-70538342D01*
X101346000Y-70486000D01*
X101346000Y-62422861D01*
X101366002Y-62354740D01*
X101419658Y-62308247D01*
X101489932Y-62298143D01*
X101521533Y-62307006D01*
X101661446Y-62366829D01*
X101868152Y-62411709D01*
X101873017Y-62411998D01*
X101913273Y-62414390D01*
X101913286Y-62414390D01*
X101915131Y-62414500D01*
X102632424Y-62414500D01*
X103384868Y-62414499D01*
X103386805Y-62414379D01*
X103386815Y-62414379D01*
X103417182Y-62412502D01*
X103433777Y-62411477D01*
X103438510Y-62410441D01*
X103438515Y-62410440D01*
X103634550Y-62367518D01*
X103634551Y-62367518D01*
X103640405Y-62366236D01*
X103834749Y-62282739D01*
X103912498Y-62230000D01*
X103961597Y-62196695D01*
X105312251Y-62196695D01*
X105312548Y-62201848D01*
X105312548Y-62201851D01*
X105318011Y-62296590D01*
X105325110Y-62419715D01*
X105326247Y-62424761D01*
X105326248Y-62424767D01*
X105346119Y-62512939D01*
X105374222Y-62637639D01*
X105458266Y-62844616D01*
X105509019Y-62927438D01*
X105572291Y-63030688D01*
X105574987Y-63035088D01*
X105721250Y-63203938D01*
X105893126Y-63346632D01*
X106086000Y-63459338D01*
X106294692Y-63539030D01*
X106299760Y-63540061D01*
X106299763Y-63540062D01*
X106407017Y-63561883D01*
X106513597Y-63583567D01*
X106518772Y-63583757D01*
X106518774Y-63583757D01*
X106731673Y-63591564D01*
X106731677Y-63591564D01*
X106736837Y-63591753D01*
X106741957Y-63591097D01*
X106741959Y-63591097D01*
X106953288Y-63564025D01*
X106953289Y-63564025D01*
X106958416Y-63563368D01*
X106963366Y-63561883D01*
X107167429Y-63500661D01*
X107167434Y-63500659D01*
X107172384Y-63499174D01*
X107372994Y-63400896D01*
X107554860Y-63271173D01*
X107713096Y-63113489D01*
X107772594Y-63030689D01*
X107843453Y-62932077D01*
X107844776Y-62933028D01*
X107891645Y-62889857D01*
X107961580Y-62877625D01*
X108027026Y-62905144D01*
X108054875Y-62936994D01*
X108114987Y-63035088D01*
X108261250Y-63203938D01*
X108433126Y-63346632D01*
X108626000Y-63459338D01*
X108834692Y-63539030D01*
X108839760Y-63540061D01*
X108839763Y-63540062D01*
X108947017Y-63561883D01*
X109053597Y-63583567D01*
X109058772Y-63583757D01*
X109058774Y-63583757D01*
X109271673Y-63591564D01*
X109271677Y-63591564D01*
X109276837Y-63591753D01*
X109281957Y-63591097D01*
X109281959Y-63591097D01*
X109493288Y-63564025D01*
X109493289Y-63564025D01*
X109498416Y-63563368D01*
X109503366Y-63561883D01*
X109707429Y-63500661D01*
X109707434Y-63500659D01*
X109712384Y-63499174D01*
X109912994Y-63400896D01*
X110094860Y-63271173D01*
X110253096Y-63113489D01*
X110312594Y-63030689D01*
X110380435Y-62936277D01*
X110383453Y-62932077D01*
X110404320Y-62889857D01*
X110480136Y-62736453D01*
X110480137Y-62736451D01*
X110482430Y-62731811D01*
X110547370Y-62518069D01*
X110576529Y-62296590D01*
X110576845Y-62283671D01*
X110578074Y-62233365D01*
X110578074Y-62233361D01*
X110578156Y-62230000D01*
X110559852Y-62007361D01*
X110505431Y-61790702D01*
X110416354Y-61585840D01*
X110324927Y-61444515D01*
X110297822Y-61402617D01*
X110297820Y-61402614D01*
X110295014Y-61398277D01*
X110144670Y-61233051D01*
X110140619Y-61229852D01*
X110140615Y-61229848D01*
X109973414Y-61097800D01*
X109973410Y-61097798D01*
X109969359Y-61094598D01*
X109927569Y-61071529D01*
X109877598Y-61021097D01*
X109862826Y-60951654D01*
X109887942Y-60885248D01*
X109915294Y-60858641D01*
X110090328Y-60733792D01*
X110098200Y-60727139D01*
X110249052Y-60576812D01*
X110255730Y-60568965D01*
X110380003Y-60396020D01*
X110385313Y-60387183D01*
X110479670Y-60196267D01*
X110483469Y-60186672D01*
X110545377Y-59982910D01*
X110547555Y-59972837D01*
X110548986Y-59961962D01*
X110546775Y-59947778D01*
X110533617Y-59944000D01*
X105335116Y-59944000D01*
X105319877Y-59948475D01*
X105318672Y-59949865D01*
X105317001Y-59957548D01*
X105317001Y-60584669D01*
X105317371Y-60591490D01*
X105322895Y-60642352D01*
X105326521Y-60657604D01*
X105371676Y-60778054D01*
X105380214Y-60793649D01*
X105456715Y-60895724D01*
X105469276Y-60908285D01*
X105571351Y-60984786D01*
X105586946Y-60993324D01*
X105695827Y-61034142D01*
X105752591Y-61076784D01*
X105777291Y-61143345D01*
X105762083Y-61212694D01*
X105742691Y-61239175D01*
X105619200Y-61368401D01*
X105615629Y-61372138D01*
X105612720Y-61376403D01*
X105612714Y-61376411D01*
X105601584Y-61392727D01*
X105489743Y-61556680D01*
X105395688Y-61759305D01*
X105335989Y-61974570D01*
X105312251Y-62196695D01*
X103961597Y-62196695D01*
X104004839Y-62167363D01*
X104004840Y-62167362D01*
X104009798Y-62163999D01*
X104159236Y-62014300D01*
X104162595Y-62009330D01*
X104274311Y-61844016D01*
X104274314Y-61844011D01*
X104277671Y-61839043D01*
X104360829Y-61644554D01*
X104405709Y-61437848D01*
X104408287Y-61394457D01*
X104408390Y-61392727D01*
X104408390Y-61392714D01*
X104408500Y-61390869D01*
X104408499Y-60021132D01*
X104405477Y-59972223D01*
X104403231Y-59961962D01*
X104361518Y-59771450D01*
X104361518Y-59771449D01*
X104360236Y-59765595D01*
X104276739Y-59571251D01*
X104184995Y-59436000D01*
X104172707Y-59417885D01*
X105317000Y-59417885D01*
X105321475Y-59433124D01*
X105322865Y-59434329D01*
X105330548Y-59436000D01*
X106402885Y-59436000D01*
X106418124Y-59431525D01*
X106419329Y-59430135D01*
X106421000Y-59422452D01*
X106421000Y-59417885D01*
X106929000Y-59417885D01*
X106933475Y-59433124D01*
X106934865Y-59434329D01*
X106942548Y-59436000D01*
X108942885Y-59436000D01*
X108958124Y-59431525D01*
X108959329Y-59430135D01*
X108961000Y-59422452D01*
X108961000Y-59417885D01*
X109469000Y-59417885D01*
X109473475Y-59433124D01*
X109474865Y-59434329D01*
X109482548Y-59436000D01*
X110533344Y-59436000D01*
X110546875Y-59432027D01*
X110548180Y-59422947D01*
X110506214Y-59255875D01*
X110502894Y-59246124D01*
X110417972Y-59050814D01*
X110413105Y-59041739D01*
X110297426Y-58862926D01*
X110291136Y-58854757D01*
X110147806Y-58697240D01*
X110140273Y-58690215D01*
X109973139Y-58558222D01*
X109964552Y-58552517D01*
X109778117Y-58449599D01*
X109768705Y-58445369D01*
X109567959Y-58374280D01*
X109557988Y-58371646D01*
X109486837Y-58358972D01*
X109473540Y-58360432D01*
X109469000Y-58374989D01*
X109469000Y-59417885D01*
X108961000Y-59417885D01*
X108961000Y-58373102D01*
X108957082Y-58359758D01*
X108942806Y-58357771D01*
X108904324Y-58363660D01*
X108894288Y-58366051D01*
X108691868Y-58432212D01*
X108682359Y-58436209D01*
X108493463Y-58534542D01*
X108484738Y-58540036D01*
X108314433Y-58667905D01*
X108306726Y-58674748D01*
X108229094Y-58755985D01*
X108167570Y-58791415D01*
X108096657Y-58787958D01*
X108038871Y-58746712D01*
X108020018Y-58713164D01*
X107978324Y-58601946D01*
X107969786Y-58586351D01*
X107893285Y-58484276D01*
X107880724Y-58471715D01*
X107778649Y-58395214D01*
X107763054Y-58386676D01*
X107642606Y-58341522D01*
X107627351Y-58337895D01*
X107576486Y-58332369D01*
X107569672Y-58332000D01*
X106947115Y-58332000D01*
X106931876Y-58336475D01*
X106930671Y-58337865D01*
X106929000Y-58345548D01*
X106929000Y-59417885D01*
X106421000Y-59417885D01*
X106421000Y-58350116D01*
X106416525Y-58334877D01*
X106415135Y-58333672D01*
X106407452Y-58332001D01*
X105780331Y-58332001D01*
X105773510Y-58332371D01*
X105722648Y-58337895D01*
X105707396Y-58341521D01*
X105586946Y-58386676D01*
X105571351Y-58395214D01*
X105469276Y-58471715D01*
X105456715Y-58484276D01*
X105380214Y-58586351D01*
X105371676Y-58601946D01*
X105326522Y-58722394D01*
X105322895Y-58737649D01*
X105317369Y-58788514D01*
X105317000Y-58795328D01*
X105317000Y-59417885D01*
X104172707Y-59417885D01*
X104161363Y-59401161D01*
X104161362Y-59401160D01*
X104157999Y-59396202D01*
X104008300Y-59246764D01*
X104003333Y-59243407D01*
X104003330Y-59243405D01*
X103838016Y-59131689D01*
X103838011Y-59131686D01*
X103833043Y-59128329D01*
X103798371Y-59113504D01*
X103775565Y-59103753D01*
X103638554Y-59045171D01*
X103431848Y-59000291D01*
X103424301Y-58999843D01*
X103386727Y-58997610D01*
X103386714Y-58997610D01*
X103384869Y-58997500D01*
X102667576Y-58997500D01*
X101915132Y-58997501D01*
X101913195Y-58997621D01*
X101913185Y-58997621D01*
X101882818Y-58999498D01*
X101866223Y-59000523D01*
X101861490Y-59001559D01*
X101861485Y-59001560D01*
X101677978Y-59041739D01*
X101659595Y-59045764D01*
X101576437Y-59081492D01*
X101521738Y-59104992D01*
X101451253Y-59113504D01*
X101387356Y-59082559D01*
X101350332Y-59021980D01*
X101346000Y-58989224D01*
X101346000Y-56514000D01*
X101366002Y-56445879D01*
X101419658Y-56399386D01*
X101472000Y-56388000D01*
X114428000Y-56388000D01*
X114496121Y-56408002D01*
G37*
%TD.AperFunction*%
%TD*%
M02*
