%TF.GenerationSoftware,KiCad,Pcbnew,(6.0.2-0)*%
%TF.CreationDate,2022-02-21T13:31:25+09:00*%
%TF.ProjectId,PodForBreadboard,506f6446-6f72-4427-9265-6164626f6172,rev?*%
%TF.SameCoordinates,Original*%
%TF.FileFunction,Copper,L1,Top*%
%TF.FilePolarity,Positive*%
%FSLAX46Y46*%
G04 Gerber Fmt 4.6, Leading zero omitted, Abs format (unit mm)*
G04 Created by KiCad (PCBNEW (6.0.2-0)) date 2022-02-21 13:31:25*
%MOMM*%
%LPD*%
G01*
G04 APERTURE LIST*
G04 Aperture macros list*
%AMRoundRect*
0 Rectangle with rounded corners*
0 $1 Rounding radius*
0 $2 $3 $4 $5 $6 $7 $8 $9 X,Y pos of 4 corners*
0 Add a 4 corners polygon primitive as box body*
4,1,4,$2,$3,$4,$5,$6,$7,$8,$9,$2,$3,0*
0 Add four circle primitives for the rounded corners*
1,1,$1+$1,$2,$3*
1,1,$1+$1,$4,$5*
1,1,$1+$1,$6,$7*
1,1,$1+$1,$8,$9*
0 Add four rect primitives between the rounded corners*
20,1,$1+$1,$2,$3,$4,$5,0*
20,1,$1+$1,$4,$5,$6,$7,0*
20,1,$1+$1,$6,$7,$8,$9,0*
20,1,$1+$1,$8,$9,$2,$3,0*%
G04 Aperture macros list end*
%TA.AperFunction,ComponentPad*%
%ADD10RoundRect,0.600000X0.650000X-0.600000X0.650000X0.600000X-0.650000X0.600000X-0.650000X-0.600000X0*%
%TD*%
%TA.AperFunction,ComponentPad*%
%ADD11C,1.400000*%
%TD*%
%TA.AperFunction,ComponentPad*%
%ADD12R,1.700000X1.700000*%
%TD*%
%TA.AperFunction,ComponentPad*%
%ADD13O,1.700000X1.700000*%
%TD*%
%TA.AperFunction,Conductor*%
%ADD14C,0.800000*%
%TD*%
G04 APERTURE END LIST*
D10*
%TO.P,RV1,*%
%TO.N,*%
X102650000Y-60706000D03*
X113250000Y-60706000D03*
D11*
%TO.P,RV1,1,1*%
%TO.N,GND*%
X105450000Y-67706000D03*
%TO.P,RV1,2,2*%
%TO.N,/2*%
X107950000Y-67706000D03*
%TO.P,RV1,3,3*%
%TO.N,VDD*%
X110450000Y-67706000D03*
%TD*%
D12*
%TO.P,J1,1,Pin_1*%
%TO.N,VDD*%
X106675000Y-57145000D03*
D13*
%TO.P,J1,2,Pin_2*%
%TO.N,GND*%
X106675000Y-59685000D03*
%TO.P,J1,3,Pin_3*%
%TO.N,VDD*%
X109215000Y-57145000D03*
%TO.P,J1,4,Pin_4*%
%TO.N,GND*%
X109215000Y-59685000D03*
%TD*%
D12*
%TO.P,J2,1,Pin_1*%
%TO.N,GND*%
X104140000Y-69850000D03*
D13*
%TO.P,J2,2,Pin_2*%
%TO.N,/2*%
X106680000Y-69850000D03*
%TO.P,J2,3,Pin_3*%
X109220000Y-69850000D03*
%TO.P,J2,4,Pin_4*%
%TO.N,VDD*%
X111760000Y-69850000D03*
%TD*%
D14*
%TO.N,/2*%
X109220000Y-69850000D02*
X109220000Y-68976000D01*
X109220000Y-68976000D02*
X107950000Y-67706000D01*
X107950000Y-67706000D02*
X107794000Y-67706000D01*
X107794000Y-67706000D02*
X106680000Y-68820000D01*
X106680000Y-68820000D02*
X106680000Y-69850000D01*
X106680000Y-69850000D02*
X109220000Y-69850000D01*
%TD*%
%TA.AperFunction,Conductor*%
%TO.N,VDD*%
G36*
X105259121Y-56408002D02*
G01*
X105305614Y-56461658D01*
X105317000Y-56514000D01*
X105317000Y-56872885D01*
X105321475Y-56888124D01*
X105322865Y-56889329D01*
X105330548Y-56891000D01*
X110533344Y-56891000D01*
X110546875Y-56887027D01*
X110548180Y-56877947D01*
X110506214Y-56710875D01*
X110502894Y-56701124D01*
X110443377Y-56564242D01*
X110434558Y-56493795D01*
X110465224Y-56429764D01*
X110525641Y-56392476D01*
X110558927Y-56388000D01*
X114428000Y-56388000D01*
X114496121Y-56408002D01*
X114542614Y-56461658D01*
X114554000Y-56514000D01*
X114554000Y-58989139D01*
X114533998Y-59057260D01*
X114480342Y-59103753D01*
X114410068Y-59113857D01*
X114378467Y-59104994D01*
X114238554Y-59045171D01*
X114031848Y-59000291D01*
X114024301Y-58999843D01*
X113986727Y-58997610D01*
X113986714Y-58997610D01*
X113984869Y-58997500D01*
X113267576Y-58997500D01*
X112515132Y-58997501D01*
X112513195Y-58997621D01*
X112513185Y-58997621D01*
X112482818Y-58999498D01*
X112466223Y-59000523D01*
X112461490Y-59001559D01*
X112461485Y-59001560D01*
X112296005Y-59037792D01*
X112259595Y-59045764D01*
X112065251Y-59129261D01*
X112060291Y-59132625D01*
X112060290Y-59132626D01*
X111896978Y-59243405D01*
X111890202Y-59248001D01*
X111740764Y-59397700D01*
X111737407Y-59402667D01*
X111737405Y-59402670D01*
X111625689Y-59567984D01*
X111625686Y-59567989D01*
X111622329Y-59572957D01*
X111539171Y-59767446D01*
X111494291Y-59974152D01*
X111494002Y-59979017D01*
X111491616Y-60019185D01*
X111491500Y-60021131D01*
X111491501Y-61390868D01*
X111494523Y-61439777D01*
X111539764Y-61646405D01*
X111623261Y-61840749D01*
X111626625Y-61845709D01*
X111626626Y-61845710D01*
X111737614Y-62009330D01*
X111742001Y-62015798D01*
X111891700Y-62165236D01*
X111896667Y-62168593D01*
X111896670Y-62168595D01*
X112061984Y-62280311D01*
X112061989Y-62280314D01*
X112066957Y-62283671D01*
X112072473Y-62286030D01*
X112072474Y-62286030D01*
X112121535Y-62307007D01*
X112261446Y-62366829D01*
X112468152Y-62411709D01*
X112473017Y-62411998D01*
X112513273Y-62414390D01*
X112513286Y-62414390D01*
X112515131Y-62414500D01*
X113232424Y-62414500D01*
X113984868Y-62414499D01*
X113986805Y-62414379D01*
X113986815Y-62414379D01*
X114017182Y-62412502D01*
X114033777Y-62411477D01*
X114038510Y-62410441D01*
X114038515Y-62410440D01*
X114234550Y-62367518D01*
X114234551Y-62367518D01*
X114240405Y-62366236D01*
X114378261Y-62307008D01*
X114448747Y-62298496D01*
X114512644Y-62329441D01*
X114549668Y-62390020D01*
X114554000Y-62422776D01*
X114554000Y-70486000D01*
X114533998Y-70554121D01*
X114480342Y-70600614D01*
X114428000Y-70612000D01*
X113101100Y-70612000D01*
X113032979Y-70591998D01*
X112986486Y-70538342D01*
X112976382Y-70468068D01*
X112988143Y-70430172D01*
X113024672Y-70356262D01*
X113028469Y-70346672D01*
X113090377Y-70142910D01*
X113092555Y-70132837D01*
X113093986Y-70121962D01*
X113091775Y-70107778D01*
X113078617Y-70104000D01*
X111632000Y-70104000D01*
X111563879Y-70083998D01*
X111517386Y-70030342D01*
X111506000Y-69978000D01*
X111506000Y-69577885D01*
X112014000Y-69577885D01*
X112018475Y-69593124D01*
X112019865Y-69594329D01*
X112027548Y-69596000D01*
X113078344Y-69596000D01*
X113091875Y-69592027D01*
X113093180Y-69582947D01*
X113051214Y-69415875D01*
X113047894Y-69406124D01*
X112962972Y-69210814D01*
X112958105Y-69201739D01*
X112842426Y-69022926D01*
X112836136Y-69014757D01*
X112692806Y-68857240D01*
X112685273Y-68850215D01*
X112518139Y-68718222D01*
X112509552Y-68712517D01*
X112323117Y-68609599D01*
X112313705Y-68605369D01*
X112112959Y-68534280D01*
X112102988Y-68531646D01*
X112031837Y-68518972D01*
X112018540Y-68520432D01*
X112014000Y-68534989D01*
X112014000Y-69577885D01*
X111506000Y-69577885D01*
X111506000Y-68533102D01*
X111501525Y-68517863D01*
X111496970Y-68513916D01*
X111458586Y-68454190D01*
X111458586Y-68383193D01*
X111476269Y-68346421D01*
X111496998Y-68316817D01*
X111502479Y-68307323D01*
X111587159Y-68125723D01*
X111590907Y-68115429D01*
X111642769Y-67921878D01*
X111644671Y-67911091D01*
X111662135Y-67711475D01*
X111662135Y-67700525D01*
X111644671Y-67500909D01*
X111642769Y-67490122D01*
X111590907Y-67296571D01*
X111587159Y-67286277D01*
X111502479Y-67104677D01*
X111497001Y-67095189D01*
X111475689Y-67064752D01*
X111465212Y-67056377D01*
X111451764Y-67063446D01*
X110539095Y-67976115D01*
X110476783Y-68010141D01*
X110405968Y-68005076D01*
X110360905Y-67976115D01*
X109447514Y-67062724D01*
X109435739Y-67056294D01*
X109423724Y-67065590D01*
X109402999Y-67095189D01*
X109397521Y-67104677D01*
X109314471Y-67282780D01*
X109267554Y-67336066D01*
X109199277Y-67355527D01*
X109131317Y-67334985D01*
X109086081Y-67282781D01*
X109085805Y-67282188D01*
X109000589Y-67099442D01*
X108879301Y-66926224D01*
X108729776Y-66776699D01*
X108607082Y-66690788D01*
X109800377Y-66690788D01*
X109807446Y-66704236D01*
X110437188Y-67333978D01*
X110451132Y-67341592D01*
X110452965Y-67341461D01*
X110459580Y-67337210D01*
X111093276Y-66703514D01*
X111099706Y-66691739D01*
X111090410Y-66679724D01*
X111060811Y-66658999D01*
X111051323Y-66653521D01*
X110869723Y-66568841D01*
X110859429Y-66565093D01*
X110665878Y-66513231D01*
X110655091Y-66511329D01*
X110455475Y-66493865D01*
X110444525Y-66493865D01*
X110244909Y-66511329D01*
X110234122Y-66513231D01*
X110040571Y-66565093D01*
X110030277Y-66568841D01*
X109848677Y-66653521D01*
X109839189Y-66658999D01*
X109808752Y-66680311D01*
X109800377Y-66690788D01*
X108607082Y-66690788D01*
X108556558Y-66655411D01*
X108551580Y-66653090D01*
X108551577Y-66653088D01*
X108369892Y-66568367D01*
X108369891Y-66568366D01*
X108364910Y-66566044D01*
X108359602Y-66564622D01*
X108359600Y-66564621D01*
X108165970Y-66512738D01*
X108165968Y-66512738D01*
X108160655Y-66511314D01*
X107950000Y-66492884D01*
X107739345Y-66511314D01*
X107734032Y-66512738D01*
X107734030Y-66512738D01*
X107540400Y-66564621D01*
X107540398Y-66564622D01*
X107535090Y-66566044D01*
X107530109Y-66568366D01*
X107530108Y-66568367D01*
X107348423Y-66653088D01*
X107348420Y-66653090D01*
X107343442Y-66655411D01*
X107170224Y-66776699D01*
X107020699Y-66926224D01*
X106899411Y-67099442D01*
X106897090Y-67104420D01*
X106897088Y-67104423D01*
X106814195Y-67282188D01*
X106767278Y-67335473D01*
X106699000Y-67354934D01*
X106631040Y-67334392D01*
X106585805Y-67282188D01*
X106502912Y-67104423D01*
X106502910Y-67104420D01*
X106500589Y-67099442D01*
X106379301Y-66926224D01*
X106229776Y-66776699D01*
X106056558Y-66655411D01*
X106051580Y-66653090D01*
X106051577Y-66653088D01*
X105869892Y-66568367D01*
X105869891Y-66568366D01*
X105864910Y-66566044D01*
X105859602Y-66564622D01*
X105859600Y-66564621D01*
X105665970Y-66512738D01*
X105665968Y-66512738D01*
X105660655Y-66511314D01*
X105450000Y-66492884D01*
X105239345Y-66511314D01*
X105234032Y-66512738D01*
X105234030Y-66512738D01*
X105040400Y-66564621D01*
X105040398Y-66564622D01*
X105035090Y-66566044D01*
X105030109Y-66568366D01*
X105030108Y-66568367D01*
X104848423Y-66653088D01*
X104848420Y-66653090D01*
X104843442Y-66655411D01*
X104670224Y-66776699D01*
X104520699Y-66926224D01*
X104399411Y-67099442D01*
X104397090Y-67104420D01*
X104397088Y-67104423D01*
X104312367Y-67286108D01*
X104310044Y-67291090D01*
X104308622Y-67296398D01*
X104308621Y-67296400D01*
X104297993Y-67336066D01*
X104255314Y-67495345D01*
X104236884Y-67706000D01*
X104255314Y-67916655D01*
X104256738Y-67921968D01*
X104256738Y-67921970D01*
X104280364Y-68010141D01*
X104310044Y-68120910D01*
X104312366Y-68125891D01*
X104312367Y-68125892D01*
X104399267Y-68312250D01*
X104409928Y-68382442D01*
X104380948Y-68447255D01*
X104321528Y-68486111D01*
X104285072Y-68491500D01*
X103241866Y-68491500D01*
X103179684Y-68498255D01*
X103043295Y-68549385D01*
X102926739Y-68636739D01*
X102839385Y-68753295D01*
X102788255Y-68889684D01*
X102781500Y-68951866D01*
X102781500Y-70486000D01*
X102761498Y-70554121D01*
X102707842Y-70600614D01*
X102655500Y-70612000D01*
X101472000Y-70612000D01*
X101403879Y-70591998D01*
X101357386Y-70538342D01*
X101346000Y-70486000D01*
X101346000Y-62422861D01*
X101366002Y-62354740D01*
X101419658Y-62308247D01*
X101489932Y-62298143D01*
X101521533Y-62307006D01*
X101661446Y-62366829D01*
X101868152Y-62411709D01*
X101873017Y-62411998D01*
X101913273Y-62414390D01*
X101913286Y-62414390D01*
X101915131Y-62414500D01*
X102632424Y-62414500D01*
X103384868Y-62414499D01*
X103386805Y-62414379D01*
X103386815Y-62414379D01*
X103417182Y-62412502D01*
X103433777Y-62411477D01*
X103438510Y-62410441D01*
X103438515Y-62410440D01*
X103634550Y-62367518D01*
X103634551Y-62367518D01*
X103640405Y-62366236D01*
X103834749Y-62282739D01*
X103954000Y-62201848D01*
X104004839Y-62167363D01*
X104004840Y-62167362D01*
X104009798Y-62163999D01*
X104159236Y-62014300D01*
X104273166Y-61845710D01*
X104274311Y-61844016D01*
X104274314Y-61844011D01*
X104277671Y-61839043D01*
X104360829Y-61644554D01*
X104405709Y-61437848D01*
X104406157Y-61430301D01*
X104408390Y-61392727D01*
X104408390Y-61392714D01*
X104408500Y-61390869D01*
X104408499Y-60021132D01*
X104405477Y-59972223D01*
X104360236Y-59765595D01*
X104311301Y-59651695D01*
X105312251Y-59651695D01*
X105312548Y-59656848D01*
X105312548Y-59656851D01*
X105318011Y-59751590D01*
X105325110Y-59874715D01*
X105326247Y-59879761D01*
X105326248Y-59879767D01*
X105346017Y-59967485D01*
X105374222Y-60092639D01*
X105458266Y-60299616D01*
X105509019Y-60382438D01*
X105572291Y-60485688D01*
X105574987Y-60490088D01*
X105721250Y-60658938D01*
X105893126Y-60801632D01*
X106086000Y-60914338D01*
X106294692Y-60994030D01*
X106299760Y-60995061D01*
X106299763Y-60995062D01*
X106407017Y-61016883D01*
X106513597Y-61038567D01*
X106518772Y-61038757D01*
X106518774Y-61038757D01*
X106731673Y-61046564D01*
X106731677Y-61046564D01*
X106736837Y-61046753D01*
X106741957Y-61046097D01*
X106741959Y-61046097D01*
X106953288Y-61019025D01*
X106953289Y-61019025D01*
X106958416Y-61018368D01*
X106963366Y-61016883D01*
X107167429Y-60955661D01*
X107167434Y-60955659D01*
X107172384Y-60954174D01*
X107372994Y-60855896D01*
X107554860Y-60726173D01*
X107713096Y-60568489D01*
X107772594Y-60485689D01*
X107843453Y-60387077D01*
X107844776Y-60388028D01*
X107891645Y-60344857D01*
X107961580Y-60332625D01*
X108027026Y-60360144D01*
X108054875Y-60391994D01*
X108114987Y-60490088D01*
X108261250Y-60658938D01*
X108433126Y-60801632D01*
X108626000Y-60914338D01*
X108834692Y-60994030D01*
X108839760Y-60995061D01*
X108839763Y-60995062D01*
X108947017Y-61016883D01*
X109053597Y-61038567D01*
X109058772Y-61038757D01*
X109058774Y-61038757D01*
X109271673Y-61046564D01*
X109271677Y-61046564D01*
X109276837Y-61046753D01*
X109281957Y-61046097D01*
X109281959Y-61046097D01*
X109493288Y-61019025D01*
X109493289Y-61019025D01*
X109498416Y-61018368D01*
X109503366Y-61016883D01*
X109707429Y-60955661D01*
X109707434Y-60955659D01*
X109712384Y-60954174D01*
X109912994Y-60855896D01*
X110094860Y-60726173D01*
X110253096Y-60568489D01*
X110312594Y-60485689D01*
X110380435Y-60391277D01*
X110383453Y-60387077D01*
X110404320Y-60344857D01*
X110480136Y-60191453D01*
X110480137Y-60191451D01*
X110482430Y-60186811D01*
X110514900Y-60079940D01*
X110545865Y-59978023D01*
X110545865Y-59978021D01*
X110547370Y-59973069D01*
X110576529Y-59751590D01*
X110578156Y-59685000D01*
X110559852Y-59462361D01*
X110505431Y-59245702D01*
X110416354Y-59040840D01*
X110295014Y-58853277D01*
X110144670Y-58688051D01*
X110140619Y-58684852D01*
X110140615Y-58684848D01*
X109973414Y-58552800D01*
X109973410Y-58552798D01*
X109969359Y-58549598D01*
X109927569Y-58526529D01*
X109877598Y-58476097D01*
X109862826Y-58406654D01*
X109887942Y-58340248D01*
X109915294Y-58313641D01*
X110090328Y-58188792D01*
X110098200Y-58182139D01*
X110249052Y-58031812D01*
X110255730Y-58023965D01*
X110380003Y-57851020D01*
X110385313Y-57842183D01*
X110479670Y-57651267D01*
X110483469Y-57641672D01*
X110545377Y-57437910D01*
X110547555Y-57427837D01*
X110548986Y-57416962D01*
X110546775Y-57402778D01*
X110533617Y-57399000D01*
X105335116Y-57399000D01*
X105319877Y-57403475D01*
X105318672Y-57404865D01*
X105317001Y-57412548D01*
X105317001Y-58039669D01*
X105317371Y-58046490D01*
X105322895Y-58097352D01*
X105326521Y-58112604D01*
X105371676Y-58233054D01*
X105380214Y-58248649D01*
X105456715Y-58350724D01*
X105469276Y-58363285D01*
X105571351Y-58439786D01*
X105586946Y-58448324D01*
X105695827Y-58489142D01*
X105752591Y-58531784D01*
X105777291Y-58598345D01*
X105762083Y-58667694D01*
X105742691Y-58694175D01*
X105619200Y-58823401D01*
X105615629Y-58827138D01*
X105489743Y-59011680D01*
X105395688Y-59214305D01*
X105335989Y-59429570D01*
X105312251Y-59651695D01*
X104311301Y-59651695D01*
X104276739Y-59571251D01*
X104184118Y-59434707D01*
X104161363Y-59401161D01*
X104161362Y-59401160D01*
X104157999Y-59396202D01*
X104008300Y-59246764D01*
X104003333Y-59243407D01*
X104003330Y-59243405D01*
X103838016Y-59131689D01*
X103838011Y-59131686D01*
X103833043Y-59128329D01*
X103798371Y-59113504D01*
X103775565Y-59103753D01*
X103638554Y-59045171D01*
X103431848Y-59000291D01*
X103424301Y-58999843D01*
X103386727Y-58997610D01*
X103386714Y-58997610D01*
X103384869Y-58997500D01*
X102667576Y-58997500D01*
X101915132Y-58997501D01*
X101913195Y-58997621D01*
X101913185Y-58997621D01*
X101882818Y-58999498D01*
X101866223Y-59000523D01*
X101861490Y-59001559D01*
X101861485Y-59001560D01*
X101696005Y-59037792D01*
X101659595Y-59045764D01*
X101576437Y-59081492D01*
X101521738Y-59104992D01*
X101451253Y-59113504D01*
X101387356Y-59082559D01*
X101350332Y-59021980D01*
X101346000Y-58989224D01*
X101346000Y-56514000D01*
X101366002Y-56445879D01*
X101419658Y-56399386D01*
X101472000Y-56388000D01*
X105191000Y-56388000D01*
X105259121Y-56408002D01*
G37*
%TD.AperFunction*%
%TD*%
M02*
