%TF.GenerationSoftware,KiCad,Pcbnew,(6.0.2-0)*%
%TF.CreationDate,2022-02-21T14:16:59+09:00*%
%TF.ProjectId,ThonkiconnBreakout,54686f6e-6b69-4636-9f6e-6e427265616b,rev?*%
%TF.SameCoordinates,Original*%
%TF.FileFunction,Copper,L1,Top*%
%TF.FilePolarity,Positive*%
%FSLAX46Y46*%
G04 Gerber Fmt 4.6, Leading zero omitted, Abs format (unit mm)*
G04 Created by KiCad (PCBNEW (6.0.2-0)) date 2022-02-21 14:16:59*
%MOMM*%
%LPD*%
G01*
G04 APERTURE LIST*
G04 Aperture macros list*
%AMRoundRect*
0 Rectangle with rounded corners*
0 $1 Rounding radius*
0 $2 $3 $4 $5 $6 $7 $8 $9 X,Y pos of 4 corners*
0 Add a 4 corners polygon primitive as box body*
4,1,4,$2,$3,$4,$5,$6,$7,$8,$9,$2,$3,0*
0 Add four circle primitives for the rounded corners*
1,1,$1+$1,$2,$3*
1,1,$1+$1,$4,$5*
1,1,$1+$1,$6,$7*
1,1,$1+$1,$8,$9*
0 Add four rect primitives between the rounded corners*
20,1,$1+$1,$2,$3,$4,$5,0*
20,1,$1+$1,$4,$5,$6,$7,0*
20,1,$1+$1,$6,$7,$8,$9,0*
20,1,$1+$1,$8,$9,$2,$3,0*%
G04 Aperture macros list end*
%TA.AperFunction,ComponentPad*%
%ADD10O,1.700000X1.700000*%
%TD*%
%TA.AperFunction,ComponentPad*%
%ADD11R,1.700000X1.700000*%
%TD*%
%TA.AperFunction,ComponentPad*%
%ADD12RoundRect,0.250500X-1.249500X0.499500X-1.249500X-0.499500X1.249500X-0.499500X1.249500X0.499500X0*%
%TD*%
%TA.AperFunction,ComponentPad*%
%ADD13RoundRect,0.250500X-0.499500X-1.249500X0.499500X-1.249500X0.499500X1.249500X-0.499500X1.249500X0*%
%TD*%
%TA.AperFunction,ComponentPad*%
%ADD14RoundRect,0.375000X-1.125000X0.375000X-1.125000X-0.375000X1.125000X-0.375000X1.125000X0.375000X0*%
%TD*%
%TA.AperFunction,ViaPad*%
%ADD15C,0.800000*%
%TD*%
%TA.AperFunction,Conductor*%
%ADD16C,0.800000*%
%TD*%
G04 APERTURE END LIST*
D10*
%TO.P,J3,2,Pin_2*%
%TO.N,GND*%
X110490000Y-55880000D03*
D11*
%TO.P,J3,1,Pin_1*%
%TO.N,unconnected-(J3-Pad1)*%
X110490000Y-53340000D03*
%TD*%
D10*
%TO.P,J2,4,Pin_4*%
%TO.N,/sw*%
X113020000Y-66040000D03*
%TO.P,J2,3,Pin_3*%
%TO.N,GND*%
X115560000Y-66040000D03*
%TO.P,J2,2,Pin_2*%
X118100000Y-66040000D03*
D11*
%TO.P,J2,1,Pin_1*%
%TO.N,Net-(J1-Pad3)*%
X120640000Y-66040000D03*
%TD*%
D12*
%TO.P,J1,1*%
%TO.N,GND*%
X116669500Y-48756000D03*
D13*
%TO.P,J1,2*%
%TO.N,/sw*%
X111469500Y-59756000D03*
D14*
%TO.P,J1,3*%
%TO.N,Net-(J1-Pad3)*%
X116669500Y-61956000D03*
%TD*%
D15*
%TO.N,GND*%
X113800000Y-61000000D03*
X121200000Y-61400000D03*
X116400000Y-58600000D03*
X116400000Y-54800000D03*
X120800000Y-54800000D03*
X120800000Y-47400000D03*
X110400000Y-47400000D03*
X110400000Y-66200000D03*
%TD*%
D16*
%TO.N,/sw*%
X113020000Y-66040000D02*
X113020000Y-63820000D01*
X113020000Y-63820000D02*
X111469500Y-62269500D01*
X111469500Y-62269500D02*
X111469500Y-59756000D01*
%TO.N,Net-(J1-Pad3)*%
X116669500Y-61956000D02*
X119356000Y-61956000D01*
X119356000Y-61956000D02*
X120640000Y-63240000D01*
X120640000Y-63240000D02*
X120640000Y-66040000D01*
%TD*%
%TA.AperFunction,Conductor*%
%TO.N,GND*%
G36*
X121354121Y-46756002D02*
G01*
X121400614Y-46809658D01*
X121412000Y-46862000D01*
X121412000Y-62422997D01*
X121391998Y-62491118D01*
X121338342Y-62537611D01*
X121268068Y-62547715D01*
X121203488Y-62518221D01*
X121196905Y-62512092D01*
X120055981Y-61371168D01*
X120043140Y-61356135D01*
X120038746Y-61350087D01*
X120038745Y-61350086D01*
X120034866Y-61344747D01*
X119984041Y-61298984D01*
X119979256Y-61294443D01*
X119964741Y-61279928D01*
X119951261Y-61269012D01*
X119948784Y-61267006D01*
X119943769Y-61262722D01*
X119897855Y-61221381D01*
X119897850Y-61221377D01*
X119892944Y-61216960D01*
X119887228Y-61213660D01*
X119887224Y-61213657D01*
X119880763Y-61209927D01*
X119864466Y-61198727D01*
X119858660Y-61194025D01*
X119858658Y-61194024D01*
X119853530Y-61189871D01*
X119792577Y-61158814D01*
X119786782Y-61155667D01*
X119783244Y-61153624D01*
X119727556Y-61121473D01*
X119721274Y-61119432D01*
X119721272Y-61119431D01*
X119714174Y-61117125D01*
X119695907Y-61109559D01*
X119683370Y-61103171D01*
X119617299Y-61085467D01*
X119610997Y-61083600D01*
X119545928Y-61062458D01*
X119539363Y-61061768D01*
X119539354Y-61061766D01*
X119531925Y-61060985D01*
X119512491Y-61057383D01*
X119505286Y-61055453D01*
X119505284Y-61055453D01*
X119498903Y-61053743D01*
X119492312Y-61053398D01*
X119492308Y-61053397D01*
X119430616Y-61050164D01*
X119424042Y-61049647D01*
X119406884Y-61047844D01*
X119406882Y-61047844D01*
X119403610Y-61047500D01*
X119383074Y-61047500D01*
X119376480Y-61047327D01*
X119314782Y-61044093D01*
X119314777Y-61044093D01*
X119308190Y-61043748D01*
X119294292Y-61045949D01*
X119274583Y-61047500D01*
X118559431Y-61047500D01*
X118491310Y-61027498D01*
X118461510Y-61000794D01*
X118426826Y-60957962D01*
X118426825Y-60957961D01*
X118422670Y-60952830D01*
X118379924Y-60918215D01*
X118283472Y-60840109D01*
X118283468Y-60840106D01*
X118278339Y-60835953D01*
X118112862Y-60751638D01*
X118106488Y-60749930D01*
X117939048Y-60705064D01*
X117939044Y-60705063D01*
X117933471Y-60703570D01*
X117927715Y-60703117D01*
X117858800Y-60697693D01*
X117858791Y-60697693D01*
X117856343Y-60697500D01*
X116669981Y-60697500D01*
X115482658Y-60697501D01*
X115435826Y-60701186D01*
X115411283Y-60703117D01*
X115411280Y-60703117D01*
X115405529Y-60703570D01*
X115226138Y-60751638D01*
X115060661Y-60835953D01*
X115055532Y-60840106D01*
X115055528Y-60840109D01*
X114922322Y-60947977D01*
X114916330Y-60952830D01*
X114912175Y-60957961D01*
X114803609Y-61092028D01*
X114803606Y-61092032D01*
X114799453Y-61097161D01*
X114715138Y-61262638D01*
X114713430Y-61269011D01*
X114713430Y-61269012D01*
X114697180Y-61329659D01*
X114667070Y-61442029D01*
X114666617Y-61447785D01*
X114663744Y-61484296D01*
X114661000Y-61519157D01*
X114661001Y-62392842D01*
X114667070Y-62469971D01*
X114715138Y-62649362D01*
X114799453Y-62814839D01*
X114803606Y-62819968D01*
X114803609Y-62819972D01*
X114855865Y-62884502D01*
X114916330Y-62959170D01*
X114921461Y-62963325D01*
X115055528Y-63071891D01*
X115055532Y-63071894D01*
X115060661Y-63076047D01*
X115226138Y-63160362D01*
X115232511Y-63162070D01*
X115232512Y-63162070D01*
X115399952Y-63206936D01*
X115399956Y-63206937D01*
X115405529Y-63208430D01*
X115411285Y-63208883D01*
X115480200Y-63214307D01*
X115480209Y-63214307D01*
X115482657Y-63214500D01*
X116669019Y-63214500D01*
X117856342Y-63214499D01*
X117903174Y-63210814D01*
X117927717Y-63208883D01*
X117927720Y-63208883D01*
X117933471Y-63208430D01*
X118112862Y-63160362D01*
X118278339Y-63076047D01*
X118283468Y-63071894D01*
X118283472Y-63071891D01*
X118417535Y-62963328D01*
X118422670Y-62959170D01*
X118461511Y-62911205D01*
X118519924Y-62870854D01*
X118559431Y-62864500D01*
X118927497Y-62864500D01*
X118995618Y-62884502D01*
X119016592Y-62901405D01*
X119694595Y-63579408D01*
X119728621Y-63641720D01*
X119731500Y-63668503D01*
X119731500Y-64581502D01*
X119711498Y-64649623D01*
X119657842Y-64696116D01*
X119649730Y-64699484D01*
X119581696Y-64724989D01*
X119543295Y-64739385D01*
X119426739Y-64826739D01*
X119339385Y-64943295D01*
X119336233Y-64951704D01*
X119336232Y-64951705D01*
X119294722Y-65062433D01*
X119252081Y-65119198D01*
X119185519Y-65143898D01*
X119116170Y-65128691D01*
X119083546Y-65103004D01*
X119032799Y-65047234D01*
X119025273Y-65040215D01*
X118858139Y-64908222D01*
X118849552Y-64902517D01*
X118663117Y-64799599D01*
X118653705Y-64795369D01*
X118452959Y-64724280D01*
X118442988Y-64721646D01*
X118371837Y-64708972D01*
X118358540Y-64710432D01*
X118354000Y-64724989D01*
X118354000Y-66168000D01*
X118333998Y-66236121D01*
X118280342Y-66282614D01*
X118228000Y-66294000D01*
X115432000Y-66294000D01*
X115363879Y-66273998D01*
X115317386Y-66220342D01*
X115306000Y-66168000D01*
X115306000Y-65767885D01*
X115814000Y-65767885D01*
X115818475Y-65783124D01*
X115819865Y-65784329D01*
X115827548Y-65786000D01*
X117827885Y-65786000D01*
X117843124Y-65781525D01*
X117844329Y-65780135D01*
X117846000Y-65772452D01*
X117846000Y-64723102D01*
X117842082Y-64709758D01*
X117827806Y-64707771D01*
X117789324Y-64713660D01*
X117779288Y-64716051D01*
X117576868Y-64782212D01*
X117567359Y-64786209D01*
X117378463Y-64884542D01*
X117369738Y-64890036D01*
X117199433Y-65017905D01*
X117191726Y-65024748D01*
X117044590Y-65178717D01*
X117038104Y-65186727D01*
X116933193Y-65340521D01*
X116878282Y-65385524D01*
X116807757Y-65393695D01*
X116744010Y-65362441D01*
X116723313Y-65337957D01*
X116642427Y-65212926D01*
X116636136Y-65204757D01*
X116492806Y-65047240D01*
X116485273Y-65040215D01*
X116318139Y-64908222D01*
X116309552Y-64902517D01*
X116123117Y-64799599D01*
X116113705Y-64795369D01*
X115912959Y-64724280D01*
X115902988Y-64721646D01*
X115831837Y-64708972D01*
X115818540Y-64710432D01*
X115814000Y-64724989D01*
X115814000Y-65767885D01*
X115306000Y-65767885D01*
X115306000Y-64723102D01*
X115302082Y-64709758D01*
X115287806Y-64707771D01*
X115249324Y-64713660D01*
X115239288Y-64716051D01*
X115036868Y-64782212D01*
X115027359Y-64786209D01*
X114838463Y-64884542D01*
X114829738Y-64890036D01*
X114659433Y-65017905D01*
X114651726Y-65024748D01*
X114504590Y-65178717D01*
X114498109Y-65186722D01*
X114393498Y-65340074D01*
X114338587Y-65385076D01*
X114268062Y-65393247D01*
X114204315Y-65361993D01*
X114183618Y-65337509D01*
X114102822Y-65212617D01*
X114102820Y-65212614D01*
X114100014Y-65208277D01*
X114080405Y-65186727D01*
X113961307Y-65055839D01*
X113930255Y-64991993D01*
X113928500Y-64971039D01*
X113928500Y-63901417D01*
X113930051Y-63881705D01*
X113931220Y-63874325D01*
X113932252Y-63867810D01*
X113928673Y-63799519D01*
X113928500Y-63792925D01*
X113928500Y-63772390D01*
X113926353Y-63751960D01*
X113925836Y-63745385D01*
X113922603Y-63683696D01*
X113922603Y-63683695D01*
X113922257Y-63677096D01*
X113918616Y-63663508D01*
X113915012Y-63644061D01*
X113914233Y-63636644D01*
X113914232Y-63636640D01*
X113913542Y-63630072D01*
X113892402Y-63565009D01*
X113890529Y-63558685D01*
X113874539Y-63499010D01*
X113874538Y-63499006D01*
X113872829Y-63492630D01*
X113866440Y-63480092D01*
X113858875Y-63461826D01*
X113856569Y-63454728D01*
X113856568Y-63454726D01*
X113854527Y-63448444D01*
X113820331Y-63389215D01*
X113817185Y-63383421D01*
X113786129Y-63322470D01*
X113777273Y-63311533D01*
X113766073Y-63295237D01*
X113762343Y-63288776D01*
X113762340Y-63288772D01*
X113759040Y-63283056D01*
X113754623Y-63278150D01*
X113754619Y-63278145D01*
X113713278Y-63232231D01*
X113708994Y-63227216D01*
X113698696Y-63214500D01*
X113696072Y-63211259D01*
X113681557Y-63196744D01*
X113677016Y-63191959D01*
X113635673Y-63146043D01*
X113631253Y-63141134D01*
X113619865Y-63132860D01*
X113604832Y-63120019D01*
X112414905Y-61930092D01*
X112380879Y-61867780D01*
X112378000Y-61840997D01*
X112378000Y-61715209D01*
X112398002Y-61647088D01*
X112432225Y-61613443D01*
X112431696Y-61612776D01*
X112437442Y-61608221D01*
X112443661Y-61604373D01*
X112568700Y-61479115D01*
X112644506Y-61356135D01*
X112657731Y-61334681D01*
X112657732Y-61334679D01*
X112661571Y-61328451D01*
X112717290Y-61160463D01*
X112722506Y-61109559D01*
X112727672Y-61059130D01*
X112728000Y-61055931D01*
X112727999Y-58456070D01*
X112717018Y-58350231D01*
X112661006Y-58182341D01*
X112567873Y-58031839D01*
X112442615Y-57906800D01*
X112291951Y-57813929D01*
X112123963Y-57758210D01*
X112117127Y-57757510D01*
X112117124Y-57757509D01*
X112064825Y-57752151D01*
X112019431Y-57747500D01*
X111473741Y-57747500D01*
X110919570Y-57747501D01*
X110916326Y-57747838D01*
X110916318Y-57747838D01*
X110869938Y-57752650D01*
X110813731Y-57758482D01*
X110645841Y-57814494D01*
X110495339Y-57907627D01*
X110370300Y-58032885D01*
X110366460Y-58039115D01*
X110282008Y-58176121D01*
X110277429Y-58183549D01*
X110221710Y-58351537D01*
X110211000Y-58456069D01*
X110211001Y-61055930D01*
X110221982Y-61161769D01*
X110277994Y-61329659D01*
X110371127Y-61480161D01*
X110496385Y-61605200D01*
X110502614Y-61609040D01*
X110508363Y-61613580D01*
X110507273Y-61614960D01*
X110548607Y-61660884D01*
X110561000Y-61715376D01*
X110561000Y-62188083D01*
X110559449Y-62207792D01*
X110557248Y-62221690D01*
X110557593Y-62228277D01*
X110557593Y-62228282D01*
X110560827Y-62289980D01*
X110561000Y-62296574D01*
X110561000Y-62317110D01*
X110561344Y-62320382D01*
X110561344Y-62320384D01*
X110563147Y-62337542D01*
X110563664Y-62344116D01*
X110566347Y-62395302D01*
X110567243Y-62412403D01*
X110568953Y-62418784D01*
X110568953Y-62418786D01*
X110570883Y-62425991D01*
X110574485Y-62445425D01*
X110575266Y-62452854D01*
X110575268Y-62452863D01*
X110575958Y-62459428D01*
X110597100Y-62524497D01*
X110598967Y-62530799D01*
X110616671Y-62596870D01*
X110623059Y-62609407D01*
X110630625Y-62627673D01*
X110634973Y-62641056D01*
X110638276Y-62646778D01*
X110638277Y-62646779D01*
X110669167Y-62700282D01*
X110672314Y-62706077D01*
X110703371Y-62767030D01*
X110707524Y-62772158D01*
X110707525Y-62772160D01*
X110712227Y-62777966D01*
X110723427Y-62794263D01*
X110727157Y-62800724D01*
X110727160Y-62800728D01*
X110730460Y-62806444D01*
X110734877Y-62811350D01*
X110734881Y-62811355D01*
X110776222Y-62857269D01*
X110780506Y-62862284D01*
X110793428Y-62878241D01*
X110807943Y-62892756D01*
X110812484Y-62897541D01*
X110858247Y-62948366D01*
X110863586Y-62952245D01*
X110863587Y-62952246D01*
X110869635Y-62956640D01*
X110884668Y-62969481D01*
X112074595Y-64159408D01*
X112108621Y-64221720D01*
X112111500Y-64248503D01*
X112111500Y-64973737D01*
X112091498Y-65041858D01*
X112076594Y-65060788D01*
X111960629Y-65182138D01*
X111957715Y-65186410D01*
X111957714Y-65186411D01*
X111945409Y-65204450D01*
X111834743Y-65366680D01*
X111740688Y-65569305D01*
X111680989Y-65784570D01*
X111657251Y-66006695D01*
X111670110Y-66229715D01*
X111671247Y-66234761D01*
X111671248Y-66234767D01*
X111682031Y-66282614D01*
X111719222Y-66447639D01*
X111757461Y-66541811D01*
X111792700Y-66628596D01*
X111799796Y-66699237D01*
X111767574Y-66762501D01*
X111706264Y-66798301D01*
X111675957Y-66802000D01*
X109854000Y-66802000D01*
X109785879Y-66781998D01*
X109739386Y-66728342D01*
X109728000Y-66676000D01*
X109728000Y-57225509D01*
X109748002Y-57157388D01*
X109801658Y-57110895D01*
X109871932Y-57100791D01*
X109900943Y-57109603D01*
X109901217Y-57108886D01*
X110105001Y-57186703D01*
X110114899Y-57189579D01*
X110218250Y-57210606D01*
X110232299Y-57209410D01*
X110236000Y-57199065D01*
X110236000Y-57198517D01*
X110744000Y-57198517D01*
X110748064Y-57212359D01*
X110761478Y-57214393D01*
X110768184Y-57213534D01*
X110778262Y-57211392D01*
X110982255Y-57150191D01*
X110991842Y-57146433D01*
X111183095Y-57052739D01*
X111191945Y-57047464D01*
X111365328Y-56923792D01*
X111373200Y-56917139D01*
X111524052Y-56766812D01*
X111530730Y-56758965D01*
X111655003Y-56586020D01*
X111660313Y-56577183D01*
X111754670Y-56386267D01*
X111758469Y-56376672D01*
X111820377Y-56172910D01*
X111822555Y-56162837D01*
X111823986Y-56151962D01*
X111821775Y-56137778D01*
X111808617Y-56134000D01*
X110762115Y-56134000D01*
X110746876Y-56138475D01*
X110745671Y-56139865D01*
X110744000Y-56147548D01*
X110744000Y-57198517D01*
X110236000Y-57198517D01*
X110236000Y-55752000D01*
X110256002Y-55683879D01*
X110309658Y-55637386D01*
X110362000Y-55626000D01*
X111808344Y-55626000D01*
X111821875Y-55622027D01*
X111823180Y-55612947D01*
X111781214Y-55445875D01*
X111777894Y-55436124D01*
X111692972Y-55240814D01*
X111688105Y-55231739D01*
X111572426Y-55052926D01*
X111566136Y-55044757D01*
X111422293Y-54886677D01*
X111391241Y-54822831D01*
X111399635Y-54752333D01*
X111444812Y-54697564D01*
X111471256Y-54683895D01*
X111578297Y-54643767D01*
X111586705Y-54640615D01*
X111703261Y-54553261D01*
X111790615Y-54436705D01*
X111841745Y-54300316D01*
X111848500Y-54238134D01*
X111848500Y-52441866D01*
X111841745Y-52379684D01*
X111790615Y-52243295D01*
X111703261Y-52126739D01*
X111586705Y-52039385D01*
X111450316Y-51988255D01*
X111388134Y-51981500D01*
X109854000Y-51981500D01*
X109785879Y-51961498D01*
X109739386Y-51907842D01*
X109728000Y-51855500D01*
X109728000Y-49302634D01*
X114661500Y-49302634D01*
X114661837Y-49309150D01*
X114671762Y-49404808D01*
X114674655Y-49418204D01*
X114726132Y-49572498D01*
X114732306Y-49585676D01*
X114817668Y-49723620D01*
X114826704Y-49735021D01*
X114941517Y-49849634D01*
X114952928Y-49858646D01*
X115091032Y-49943775D01*
X115104209Y-49949919D01*
X115258611Y-50001132D01*
X115271978Y-50003998D01*
X115366402Y-50013672D01*
X115372817Y-50014000D01*
X116397385Y-50014000D01*
X116412624Y-50009525D01*
X116413829Y-50008135D01*
X116415500Y-50000452D01*
X116415500Y-49995885D01*
X116923500Y-49995885D01*
X116927975Y-50011124D01*
X116929365Y-50012329D01*
X116937048Y-50014000D01*
X117966134Y-50014000D01*
X117972650Y-50013663D01*
X118068308Y-50003738D01*
X118081704Y-50000845D01*
X118235998Y-49949368D01*
X118249176Y-49943194D01*
X118387120Y-49857832D01*
X118398521Y-49848796D01*
X118513134Y-49733983D01*
X118522146Y-49722572D01*
X118607275Y-49584468D01*
X118613419Y-49571291D01*
X118664632Y-49416889D01*
X118667498Y-49403522D01*
X118677172Y-49309098D01*
X118677500Y-49302683D01*
X118677500Y-49028115D01*
X118673025Y-49012876D01*
X118671635Y-49011671D01*
X118663952Y-49010000D01*
X116941615Y-49010000D01*
X116926376Y-49014475D01*
X116925171Y-49015865D01*
X116923500Y-49023548D01*
X116923500Y-49995885D01*
X116415500Y-49995885D01*
X116415500Y-49028115D01*
X116411025Y-49012876D01*
X116409635Y-49011671D01*
X116401952Y-49010000D01*
X114679615Y-49010000D01*
X114664376Y-49014475D01*
X114663171Y-49015865D01*
X114661500Y-49023548D01*
X114661500Y-49302634D01*
X109728000Y-49302634D01*
X109728000Y-48483885D01*
X114661500Y-48483885D01*
X114665975Y-48499124D01*
X114667365Y-48500329D01*
X114675048Y-48502000D01*
X116397385Y-48502000D01*
X116412624Y-48497525D01*
X116413829Y-48496135D01*
X116415500Y-48488452D01*
X116415500Y-48483885D01*
X116923500Y-48483885D01*
X116927975Y-48499124D01*
X116929365Y-48500329D01*
X116937048Y-48502000D01*
X118659385Y-48502000D01*
X118674624Y-48497525D01*
X118675829Y-48496135D01*
X118677500Y-48488452D01*
X118677500Y-48209366D01*
X118677163Y-48202850D01*
X118667238Y-48107192D01*
X118664345Y-48093796D01*
X118612868Y-47939502D01*
X118606694Y-47926324D01*
X118521332Y-47788380D01*
X118512296Y-47776979D01*
X118397483Y-47662366D01*
X118386072Y-47653354D01*
X118247968Y-47568225D01*
X118234791Y-47562081D01*
X118080389Y-47510868D01*
X118067022Y-47508002D01*
X117972598Y-47498328D01*
X117966183Y-47498000D01*
X116941615Y-47498000D01*
X116926376Y-47502475D01*
X116925171Y-47503865D01*
X116923500Y-47511548D01*
X116923500Y-48483885D01*
X116415500Y-48483885D01*
X116415500Y-47516115D01*
X116411025Y-47500876D01*
X116409635Y-47499671D01*
X116401952Y-47498000D01*
X115372866Y-47498000D01*
X115366350Y-47498337D01*
X115270692Y-47508262D01*
X115257296Y-47511155D01*
X115103002Y-47562632D01*
X115089824Y-47568806D01*
X114951880Y-47654168D01*
X114940479Y-47663204D01*
X114825866Y-47778017D01*
X114816854Y-47789428D01*
X114731725Y-47927532D01*
X114725581Y-47940709D01*
X114674368Y-48095111D01*
X114671502Y-48108478D01*
X114661828Y-48202902D01*
X114661500Y-48209317D01*
X114661500Y-48483885D01*
X109728000Y-48483885D01*
X109728000Y-46862000D01*
X109748002Y-46793879D01*
X109801658Y-46747386D01*
X109854000Y-46736000D01*
X121286000Y-46736000D01*
X121354121Y-46756002D01*
G37*
%TD.AperFunction*%
%TD*%
M02*
