M48
; DRILL file {KiCad (6.0.2-0)} date 
; FORMAT={-:-/ absolute / inch / decimal}
; #@! TF.CreationDate,2022-02-21T14:17:03+09:00
; #@! TF.GenerationSoftware,Kicad,Pcbnew,(6.0.2-0)
; #@! TF.FileFunction,Plated,1,2,PTH
FMAT,2
INCH
; #@! TA.AperFunction,Plated,PTH,ViaDrill
T1C0.0157
; #@! TA.AperFunction,Plated,PTH,ComponentDrill
T2C0.0315
; #@! TA.AperFunction,Plated,PTH,ComponentDrill
T3C0.0394
%
G90
G05
T1
X4.3465Y-1.8661
X4.3465Y-2.6063
X4.4803Y-2.4016
X4.5827Y-2.1575
X4.5827Y-2.3071
X4.7559Y-1.8661
X4.7559Y-2.1575
X4.7717Y-2.4173
T3
X4.35Y-2.1
X4.35Y-2.2
X4.4496Y-2.6
X4.5496Y-2.6
X4.6496Y-2.6
X4.7496Y-2.6
T2
G00X4.3886Y-2.3191
M15
G01X4.3886Y-2.3861
M16
G05
G00X4.6268Y-1.9195
M15
G01X4.5598Y-1.9195
M16
G05
G00X4.6268Y-2.4392
M15
G01X4.5598Y-2.4392
M16
G05
T0
M30
