%TF.GenerationSoftware,KiCad,Pcbnew,(6.0.2-0)*%
%TF.CreationDate,2022-02-21T10:23:53+09:00*%
%TF.ProjectId,EurorackPowerForBreadboard,4575726f-7261-4636-9b50-6f776572466f,B*%
%TF.SameCoordinates,Original*%
%TF.FileFunction,Copper,L2,Bot*%
%TF.FilePolarity,Positive*%
%FSLAX46Y46*%
G04 Gerber Fmt 4.6, Leading zero omitted, Abs format (unit mm)*
G04 Created by KiCad (PCBNEW (6.0.2-0)) date 2022-02-21 10:23:53*
%MOMM*%
%LPD*%
G01*
G04 APERTURE LIST*
%TA.AperFunction,ComponentPad*%
%ADD10R,1.700000X1.700000*%
%TD*%
%TA.AperFunction,ComponentPad*%
%ADD11O,1.700000X1.700000*%
%TD*%
%TA.AperFunction,ViaPad*%
%ADD12C,0.800000*%
%TD*%
G04 APERTURE END LIST*
D10*
%TO.P,J3,1,Pin_1*%
%TO.N,+12V*%
X120280000Y-99060000D03*
D11*
%TO.P,J3,2,Pin_2*%
X117740000Y-99060000D03*
%TO.P,J3,3,Pin_3*%
%TO.N,GND*%
X120280000Y-101600000D03*
%TO.P,J3,4,Pin_4*%
X117740000Y-101600000D03*
%TO.P,J3,5,Pin_5*%
X120280000Y-104140000D03*
%TO.P,J3,6,Pin_6*%
X117740000Y-104140000D03*
%TO.P,J3,7,Pin_7*%
X120280000Y-106680000D03*
%TO.P,J3,8,Pin_8*%
X117740000Y-106680000D03*
%TO.P,J3,9,Pin_9*%
%TO.N,-12V*%
X120280000Y-109220000D03*
%TO.P,J3,10,Pin_10*%
X117740000Y-109220000D03*
%TD*%
D10*
%TO.P,J2,1,Pin_1*%
%TO.N,GND*%
X110490000Y-109220000D03*
D11*
%TO.P,J2,2,Pin_2*%
%TO.N,-12V*%
X113030000Y-109220000D03*
%TD*%
D10*
%TO.P,J1,1,Pin_1*%
%TO.N,GND*%
X110490000Y-99060000D03*
D11*
%TO.P,J1,2,Pin_2*%
%TO.N,+12V*%
X113030000Y-99060000D03*
%TD*%
D12*
%TO.N,GND*%
X116332000Y-97282000D03*
X113030000Y-110998000D03*
X111760000Y-104140000D03*
X113030000Y-97282000D03*
X120904000Y-97282000D03*
X120904000Y-110998000D03*
X116332000Y-110744000D03*
%TD*%
%TA.AperFunction,Conductor*%
%TO.N,GND*%
G36*
X121354121Y-97048002D02*
G01*
X121400614Y-97101658D01*
X121412000Y-97154000D01*
X121412000Y-97590818D01*
X121391998Y-97658939D01*
X121338342Y-97705432D01*
X121268068Y-97715536D01*
X121255527Y-97712324D01*
X121255400Y-97712856D01*
X121247716Y-97711029D01*
X121240316Y-97708255D01*
X121178134Y-97701500D01*
X119381866Y-97701500D01*
X119319684Y-97708255D01*
X119183295Y-97759385D01*
X119066739Y-97846739D01*
X118979385Y-97963295D01*
X118976233Y-97971703D01*
X118934919Y-98081907D01*
X118892277Y-98138671D01*
X118825716Y-98163371D01*
X118756367Y-98148163D01*
X118723743Y-98122476D01*
X118673151Y-98066875D01*
X118673142Y-98066866D01*
X118669670Y-98063051D01*
X118665619Y-98059852D01*
X118665615Y-98059848D01*
X118498414Y-97927800D01*
X118498410Y-97927798D01*
X118494359Y-97924598D01*
X118298789Y-97816638D01*
X118293920Y-97814914D01*
X118293916Y-97814912D01*
X118093087Y-97743795D01*
X118093083Y-97743794D01*
X118088212Y-97742069D01*
X118083119Y-97741162D01*
X118083116Y-97741161D01*
X117873373Y-97703800D01*
X117873367Y-97703799D01*
X117868284Y-97702894D01*
X117794452Y-97701992D01*
X117650081Y-97700228D01*
X117650079Y-97700228D01*
X117644911Y-97700165D01*
X117424091Y-97733955D01*
X117211756Y-97803357D01*
X117013607Y-97906507D01*
X117009474Y-97909610D01*
X117009471Y-97909612D01*
X116926450Y-97971946D01*
X116834965Y-98040635D01*
X116795525Y-98081907D01*
X116741280Y-98138671D01*
X116680629Y-98202138D01*
X116554743Y-98386680D01*
X116460688Y-98589305D01*
X116400989Y-98804570D01*
X116377251Y-99026695D01*
X116377548Y-99031848D01*
X116377548Y-99031851D01*
X116383011Y-99126590D01*
X116390110Y-99249715D01*
X116391247Y-99254761D01*
X116391248Y-99254767D01*
X116411119Y-99342939D01*
X116439222Y-99467639D01*
X116523266Y-99674616D01*
X116639987Y-99865088D01*
X116786250Y-100033938D01*
X116958126Y-100176632D01*
X117031955Y-100219774D01*
X117080679Y-100271412D01*
X117093750Y-100341195D01*
X117067019Y-100406967D01*
X117026562Y-100440327D01*
X117018457Y-100444546D01*
X117009738Y-100450036D01*
X116839433Y-100577905D01*
X116831726Y-100584748D01*
X116684590Y-100738717D01*
X116678104Y-100746727D01*
X116558098Y-100922649D01*
X116553000Y-100931623D01*
X116463338Y-101124783D01*
X116459775Y-101134470D01*
X116404389Y-101334183D01*
X116405912Y-101342607D01*
X116418292Y-101346000D01*
X120408000Y-101346000D01*
X120476121Y-101366002D01*
X120522614Y-101419658D01*
X120534000Y-101472000D01*
X120534000Y-106808000D01*
X120513998Y-106876121D01*
X120460342Y-106922614D01*
X120408000Y-106934000D01*
X116423225Y-106934000D01*
X116409694Y-106937973D01*
X116408257Y-106947966D01*
X116438565Y-107082446D01*
X116441645Y-107092275D01*
X116521770Y-107289603D01*
X116526413Y-107298794D01*
X116637694Y-107480388D01*
X116643777Y-107488699D01*
X116783213Y-107649667D01*
X116790580Y-107656883D01*
X116954434Y-107792916D01*
X116962881Y-107798831D01*
X117031969Y-107839203D01*
X117080693Y-107890842D01*
X117093764Y-107960625D01*
X117067033Y-108026396D01*
X117026584Y-108059752D01*
X117013607Y-108066507D01*
X117009474Y-108069610D01*
X117009471Y-108069612D01*
X116938662Y-108122777D01*
X116834965Y-108200635D01*
X116680629Y-108362138D01*
X116554743Y-108546680D01*
X116460688Y-108749305D01*
X116400989Y-108964570D01*
X116377251Y-109186695D01*
X116377548Y-109191848D01*
X116377548Y-109191851D01*
X116383011Y-109286590D01*
X116390110Y-109409715D01*
X116391247Y-109414761D01*
X116391248Y-109414767D01*
X116411119Y-109502939D01*
X116439222Y-109627639D01*
X116523266Y-109834616D01*
X116574019Y-109917438D01*
X116637291Y-110020688D01*
X116639987Y-110025088D01*
X116786250Y-110193938D01*
X116958126Y-110336632D01*
X117151000Y-110449338D01*
X117359692Y-110529030D01*
X117364760Y-110530061D01*
X117364763Y-110530062D01*
X117472017Y-110551883D01*
X117578597Y-110573567D01*
X117583772Y-110573757D01*
X117583774Y-110573757D01*
X117796673Y-110581564D01*
X117796677Y-110581564D01*
X117801837Y-110581753D01*
X117806957Y-110581097D01*
X117806959Y-110581097D01*
X118018288Y-110554025D01*
X118018289Y-110554025D01*
X118023416Y-110553368D01*
X118028366Y-110551883D01*
X118232429Y-110490661D01*
X118232434Y-110490659D01*
X118237384Y-110489174D01*
X118437994Y-110390896D01*
X118619860Y-110261173D01*
X118691095Y-110190187D01*
X118720701Y-110160684D01*
X118778096Y-110103489D01*
X118837594Y-110020689D01*
X118908453Y-109922077D01*
X118909776Y-109923028D01*
X118956645Y-109879857D01*
X119026580Y-109867625D01*
X119092026Y-109895144D01*
X119119875Y-109926994D01*
X119179987Y-110025088D01*
X119326250Y-110193938D01*
X119498126Y-110336632D01*
X119691000Y-110449338D01*
X119899692Y-110529030D01*
X119904760Y-110530061D01*
X119904763Y-110530062D01*
X120012017Y-110551883D01*
X120118597Y-110573567D01*
X120123772Y-110573757D01*
X120123774Y-110573757D01*
X120336673Y-110581564D01*
X120336677Y-110581564D01*
X120341837Y-110581753D01*
X120346957Y-110581097D01*
X120346959Y-110581097D01*
X120558288Y-110554025D01*
X120558289Y-110554025D01*
X120563416Y-110553368D01*
X120568366Y-110551883D01*
X120772429Y-110490661D01*
X120772434Y-110490659D01*
X120777384Y-110489174D01*
X120977994Y-110390896D01*
X121159860Y-110261173D01*
X121163517Y-110257529D01*
X121163523Y-110257524D01*
X121197061Y-110224103D01*
X121259432Y-110190187D01*
X121330239Y-110195376D01*
X121387000Y-110238022D01*
X121411695Y-110304585D01*
X121412000Y-110313354D01*
X121412000Y-111126000D01*
X121391998Y-111194121D01*
X121338342Y-111240614D01*
X121286000Y-111252000D01*
X109854000Y-111252000D01*
X109785879Y-111231998D01*
X109739386Y-111178342D01*
X109728000Y-111126000D01*
X109728000Y-110704000D01*
X109748002Y-110635879D01*
X109801658Y-110589386D01*
X109854000Y-110578000D01*
X110217885Y-110578000D01*
X110233124Y-110573525D01*
X110234329Y-110572135D01*
X110236000Y-110564452D01*
X110236000Y-110559884D01*
X110744000Y-110559884D01*
X110748475Y-110575123D01*
X110749865Y-110576328D01*
X110757548Y-110577999D01*
X111384669Y-110577999D01*
X111391490Y-110577629D01*
X111442352Y-110572105D01*
X111457604Y-110568479D01*
X111578054Y-110523324D01*
X111593649Y-110514786D01*
X111695724Y-110438285D01*
X111708285Y-110425724D01*
X111784786Y-110323649D01*
X111793324Y-110308054D01*
X111834225Y-110198952D01*
X111876867Y-110142188D01*
X111943428Y-110117488D01*
X112012777Y-110132696D01*
X112047444Y-110160684D01*
X112072865Y-110190031D01*
X112072869Y-110190035D01*
X112076250Y-110193938D01*
X112248126Y-110336632D01*
X112441000Y-110449338D01*
X112649692Y-110529030D01*
X112654760Y-110530061D01*
X112654763Y-110530062D01*
X112762017Y-110551883D01*
X112868597Y-110573567D01*
X112873772Y-110573757D01*
X112873774Y-110573757D01*
X113086673Y-110581564D01*
X113086677Y-110581564D01*
X113091837Y-110581753D01*
X113096957Y-110581097D01*
X113096959Y-110581097D01*
X113308288Y-110554025D01*
X113308289Y-110554025D01*
X113313416Y-110553368D01*
X113318366Y-110551883D01*
X113522429Y-110490661D01*
X113522434Y-110490659D01*
X113527384Y-110489174D01*
X113727994Y-110390896D01*
X113909860Y-110261173D01*
X113981095Y-110190187D01*
X114010701Y-110160684D01*
X114068096Y-110103489D01*
X114127594Y-110020689D01*
X114195435Y-109926277D01*
X114198453Y-109922077D01*
X114219320Y-109879857D01*
X114295136Y-109726453D01*
X114295137Y-109726451D01*
X114297430Y-109721811D01*
X114362370Y-109508069D01*
X114391529Y-109286590D01*
X114393156Y-109220000D01*
X114374852Y-108997361D01*
X114320431Y-108780702D01*
X114231354Y-108575840D01*
X114110014Y-108388277D01*
X113959670Y-108223051D01*
X113955619Y-108219852D01*
X113955615Y-108219848D01*
X113788414Y-108087800D01*
X113788410Y-108087798D01*
X113784359Y-108084598D01*
X113588789Y-107976638D01*
X113583920Y-107974914D01*
X113583916Y-107974912D01*
X113383087Y-107903795D01*
X113383083Y-107903794D01*
X113378212Y-107902069D01*
X113373119Y-107901162D01*
X113373116Y-107901161D01*
X113163373Y-107863800D01*
X113163367Y-107863799D01*
X113158284Y-107862894D01*
X113084452Y-107861992D01*
X112940081Y-107860228D01*
X112940079Y-107860228D01*
X112934911Y-107860165D01*
X112714091Y-107893955D01*
X112501756Y-107963357D01*
X112471443Y-107979137D01*
X112313170Y-108061529D01*
X112303607Y-108066507D01*
X112299474Y-108069610D01*
X112299471Y-108069612D01*
X112228662Y-108122777D01*
X112124965Y-108200635D01*
X112121393Y-108204373D01*
X112043898Y-108285466D01*
X111982374Y-108320895D01*
X111911462Y-108317438D01*
X111853676Y-108276192D01*
X111834823Y-108242644D01*
X111793324Y-108131946D01*
X111784786Y-108116351D01*
X111708285Y-108014276D01*
X111695724Y-108001715D01*
X111593649Y-107925214D01*
X111578054Y-107916676D01*
X111457606Y-107871522D01*
X111442351Y-107867895D01*
X111391486Y-107862369D01*
X111384672Y-107862000D01*
X110762115Y-107862000D01*
X110746876Y-107866475D01*
X110745671Y-107867865D01*
X110744000Y-107875548D01*
X110744000Y-110559884D01*
X110236000Y-110559884D01*
X110236000Y-107880116D01*
X110231525Y-107864877D01*
X110230135Y-107863672D01*
X110222452Y-107862001D01*
X109854000Y-107862001D01*
X109785879Y-107841999D01*
X109739386Y-107788343D01*
X109728000Y-107736001D01*
X109728000Y-106414183D01*
X116404389Y-106414183D01*
X116405912Y-106422607D01*
X116418292Y-106426000D01*
X117467885Y-106426000D01*
X117483124Y-106421525D01*
X117484329Y-106420135D01*
X117486000Y-106412452D01*
X117486000Y-106407885D01*
X117994000Y-106407885D01*
X117998475Y-106423124D01*
X117999865Y-106424329D01*
X118007548Y-106426000D01*
X120007885Y-106426000D01*
X120023124Y-106421525D01*
X120024329Y-106420135D01*
X120026000Y-106412452D01*
X120026000Y-104412115D01*
X120021525Y-104396876D01*
X120020135Y-104395671D01*
X120012452Y-104394000D01*
X118012115Y-104394000D01*
X117996876Y-104398475D01*
X117995671Y-104399865D01*
X117994000Y-104407548D01*
X117994000Y-106407885D01*
X117486000Y-106407885D01*
X117486000Y-104412115D01*
X117481525Y-104396876D01*
X117480135Y-104395671D01*
X117472452Y-104394000D01*
X116423225Y-104394000D01*
X116409694Y-104397973D01*
X116408257Y-104407966D01*
X116438565Y-104542446D01*
X116441645Y-104552275D01*
X116521770Y-104749603D01*
X116526413Y-104758794D01*
X116637694Y-104940388D01*
X116643777Y-104948699D01*
X116783213Y-105109667D01*
X116790580Y-105116883D01*
X116954434Y-105252916D01*
X116962881Y-105258831D01*
X117032479Y-105299501D01*
X117081203Y-105351140D01*
X117094274Y-105420923D01*
X117067543Y-105486694D01*
X117027087Y-105520053D01*
X117018462Y-105524542D01*
X117009738Y-105530036D01*
X116839433Y-105657905D01*
X116831726Y-105664748D01*
X116684590Y-105818717D01*
X116678104Y-105826727D01*
X116558098Y-106002649D01*
X116553000Y-106011623D01*
X116463338Y-106204783D01*
X116459775Y-106214470D01*
X116404389Y-106414183D01*
X109728000Y-106414183D01*
X109728000Y-103874183D01*
X116404389Y-103874183D01*
X116405912Y-103882607D01*
X116418292Y-103886000D01*
X117467885Y-103886000D01*
X117483124Y-103881525D01*
X117484329Y-103880135D01*
X117486000Y-103872452D01*
X117486000Y-103867885D01*
X117994000Y-103867885D01*
X117998475Y-103883124D01*
X117999865Y-103884329D01*
X118007548Y-103886000D01*
X120007885Y-103886000D01*
X120023124Y-103881525D01*
X120024329Y-103880135D01*
X120026000Y-103872452D01*
X120026000Y-101872115D01*
X120021525Y-101856876D01*
X120020135Y-101855671D01*
X120012452Y-101854000D01*
X118012115Y-101854000D01*
X117996876Y-101858475D01*
X117995671Y-101859865D01*
X117994000Y-101867548D01*
X117994000Y-103867885D01*
X117486000Y-103867885D01*
X117486000Y-101872115D01*
X117481525Y-101856876D01*
X117480135Y-101855671D01*
X117472452Y-101854000D01*
X116423225Y-101854000D01*
X116409694Y-101857973D01*
X116408257Y-101867966D01*
X116438565Y-102002446D01*
X116441645Y-102012275D01*
X116521770Y-102209603D01*
X116526413Y-102218794D01*
X116637694Y-102400388D01*
X116643777Y-102408699D01*
X116783213Y-102569667D01*
X116790580Y-102576883D01*
X116954434Y-102712916D01*
X116962881Y-102718831D01*
X117032479Y-102759501D01*
X117081203Y-102811140D01*
X117094274Y-102880923D01*
X117067543Y-102946694D01*
X117027087Y-102980053D01*
X117018462Y-102984542D01*
X117009738Y-102990036D01*
X116839433Y-103117905D01*
X116831726Y-103124748D01*
X116684590Y-103278717D01*
X116678104Y-103286727D01*
X116558098Y-103462649D01*
X116553000Y-103471623D01*
X116463338Y-103664783D01*
X116459775Y-103674470D01*
X116404389Y-103874183D01*
X109728000Y-103874183D01*
X109728000Y-100544000D01*
X109748002Y-100475879D01*
X109801658Y-100429386D01*
X109854000Y-100418000D01*
X110217885Y-100418000D01*
X110233124Y-100413525D01*
X110234329Y-100412135D01*
X110236000Y-100404452D01*
X110236000Y-100399884D01*
X110744000Y-100399884D01*
X110748475Y-100415123D01*
X110749865Y-100416328D01*
X110757548Y-100417999D01*
X111384669Y-100417999D01*
X111391490Y-100417629D01*
X111442352Y-100412105D01*
X111457604Y-100408479D01*
X111578054Y-100363324D01*
X111593649Y-100354786D01*
X111695724Y-100278285D01*
X111708285Y-100265724D01*
X111784786Y-100163649D01*
X111793324Y-100148054D01*
X111834225Y-100038952D01*
X111876867Y-99982188D01*
X111943428Y-99957488D01*
X112012777Y-99972696D01*
X112047444Y-100000684D01*
X112072865Y-100030031D01*
X112072869Y-100030035D01*
X112076250Y-100033938D01*
X112248126Y-100176632D01*
X112441000Y-100289338D01*
X112649692Y-100369030D01*
X112654760Y-100370061D01*
X112654763Y-100370062D01*
X112761054Y-100391687D01*
X112868597Y-100413567D01*
X112873772Y-100413757D01*
X112873774Y-100413757D01*
X113086673Y-100421564D01*
X113086677Y-100421564D01*
X113091837Y-100421753D01*
X113096957Y-100421097D01*
X113096959Y-100421097D01*
X113308288Y-100394025D01*
X113308289Y-100394025D01*
X113313416Y-100393368D01*
X113319019Y-100391687D01*
X113522429Y-100330661D01*
X113522434Y-100330659D01*
X113527384Y-100329174D01*
X113727994Y-100230896D01*
X113909860Y-100101173D01*
X114068096Y-99943489D01*
X114127594Y-99860689D01*
X114195435Y-99766277D01*
X114198453Y-99762077D01*
X114297430Y-99561811D01*
X114362370Y-99348069D01*
X114391529Y-99126590D01*
X114393156Y-99060000D01*
X114374852Y-98837361D01*
X114320431Y-98620702D01*
X114231354Y-98415840D01*
X114110014Y-98228277D01*
X113959670Y-98063051D01*
X113955619Y-98059852D01*
X113955615Y-98059848D01*
X113788414Y-97927800D01*
X113788410Y-97927798D01*
X113784359Y-97924598D01*
X113588789Y-97816638D01*
X113583920Y-97814914D01*
X113583916Y-97814912D01*
X113383087Y-97743795D01*
X113383083Y-97743794D01*
X113378212Y-97742069D01*
X113373119Y-97741162D01*
X113373116Y-97741161D01*
X113163373Y-97703800D01*
X113163367Y-97703799D01*
X113158284Y-97702894D01*
X113084452Y-97701992D01*
X112940081Y-97700228D01*
X112940079Y-97700228D01*
X112934911Y-97700165D01*
X112714091Y-97733955D01*
X112501756Y-97803357D01*
X112303607Y-97906507D01*
X112299474Y-97909610D01*
X112299471Y-97909612D01*
X112216450Y-97971946D01*
X112124965Y-98040635D01*
X112121393Y-98044373D01*
X112043898Y-98125466D01*
X111982374Y-98160895D01*
X111911462Y-98157438D01*
X111853676Y-98116192D01*
X111834823Y-98082644D01*
X111793324Y-97971946D01*
X111784786Y-97956351D01*
X111708285Y-97854276D01*
X111695724Y-97841715D01*
X111593649Y-97765214D01*
X111578054Y-97756676D01*
X111457606Y-97711522D01*
X111442351Y-97707895D01*
X111391486Y-97702369D01*
X111384672Y-97702000D01*
X110762115Y-97702000D01*
X110746876Y-97706475D01*
X110745671Y-97707865D01*
X110744000Y-97715548D01*
X110744000Y-100399884D01*
X110236000Y-100399884D01*
X110236000Y-97720116D01*
X110231525Y-97704877D01*
X110230135Y-97703672D01*
X110222452Y-97702001D01*
X109854000Y-97702001D01*
X109785879Y-97681999D01*
X109739386Y-97628343D01*
X109728000Y-97576001D01*
X109728000Y-97154000D01*
X109748002Y-97085879D01*
X109801658Y-97039386D01*
X109854000Y-97028000D01*
X121286000Y-97028000D01*
X121354121Y-97048002D01*
G37*
%TD.AperFunction*%
%TD*%
M02*
