M48
; DRILL file {KiCad (6.0.2-0)} date 
; FORMAT={-:-/ absolute / inch / decimal}
; #@! TF.CreationDate,2022-02-21T10:23:57+09:00
; #@! TF.GenerationSoftware,Kicad,Pcbnew,(6.0.2-0)
; #@! TF.FileFunction,Plated,1,2,PTH
FMAT,2
INCH
; #@! TA.AperFunction,Plated,PTH,ViaDrill
T1C0.0157
; #@! TA.AperFunction,Plated,PTH,ComponentDrill
T2C0.0394
%
G90
G05
T1
X4.4Y-4.1
X4.45Y-3.83
X4.45Y-4.37
X4.58Y-3.83
X4.58Y-4.36
X4.76Y-3.83
X4.76Y-4.37
T2
X4.35Y-3.9
X4.35Y-4.3
X4.45Y-3.9
X4.45Y-4.3
X4.6354Y-3.9
X4.6354Y-4.0
X4.6354Y-4.1
X4.6354Y-4.2
X4.6354Y-4.3
X4.7354Y-3.9
X4.7354Y-4.0
X4.7354Y-4.1
X4.7354Y-4.2
X4.7354Y-4.3
T0
M30
